<svg xmlns="http://www.w3.org/2000/svg" width="30" height="23.372" viewBox="0 0 30 23.372">
    <path id="Path_139" data-name="Path 139"
          d="M6.266,26.542H28.441a4.01,4.01,0,0,0,2.921-.972,3.874,3.874,0,0,0,.991-2.889V9.927a3.9,3.9,0,0,0-.991-2.9,3.993,3.993,0,0,0-2.921-.978H25.082a3.411,3.411,0,0,1-.779-.071,1.484,1.484,0,0,1-.528-.245,4.038,4.038,0,0,1-.521-.47L22.276,4.2a3.2,3.2,0,0,0-1-.766A3.514,3.514,0,0,0,19.78,3.17H14.85a3.477,3.477,0,0,0-1.48.264,3.343,3.343,0,0,0-1.017.766l-.965,1.068a3.025,3.025,0,0,1-.779.618,2.5,2.5,0,0,1-1.049.167H6.266a3.993,3.993,0,0,0-2.921.978,3.9,3.9,0,0,0-.991,2.9V22.681a3.874,3.874,0,0,0,.991,2.889A4.01,4.01,0,0,0,6.266,26.542Zm2.7-10.837,1.956-2.728a.735.735,0,0,1,.631-.367.774.774,0,0,1,.631.367l1.982,2.728a.708.708,0,0,1,.148.676.5.5,0,0,1-.547.341H12.547a4.863,4.863,0,0,0,.972,1.866,4.975,4.975,0,0,0,3.855,1.776,4.259,4.259,0,0,0,1.525-.257,4.9,4.9,0,0,0,1.306-.759,1.423,1.423,0,0,1,.8-.27.932.932,0,0,1,.714.347.888.888,0,0,1,.232.8,1.331,1.331,0,0,1-.553.792,6.009,6.009,0,0,1-1.84.991,6.724,6.724,0,0,1-2.188.36,6.911,6.911,0,0,1-3.147-.714,6.6,6.6,0,0,1-2.368-1.988,6.876,6.876,0,0,1-1.242-2.947H9.355a.483.483,0,0,1-.534-.335A.776.776,0,0,1,8.969,15.705Zm4.041-3.977a.843.843,0,0,1-.225-.792,1.376,1.376,0,0,1,.547-.792,5.829,5.829,0,0,1,1.834-.991,6.743,6.743,0,0,1,2.181-.36,6.951,6.951,0,0,1,3.153.714A6.638,6.638,0,0,1,22.881,11.5a6.826,6.826,0,0,1,1.248,2.934h1.184a.483.483,0,0,1,.534.347.766.766,0,0,1-.148.682L23.743,18.2a.729.729,0,0,1-.637.347.779.779,0,0,1-.624-.347L20.5,15.461a.718.718,0,0,1-.148-.682.5.5,0,0,1,.547-.347h1.287a4.639,4.639,0,0,0-.972-1.866A5.017,5.017,0,0,0,17.347,10.8a4.22,4.22,0,0,0-1.512.257,5.1,5.1,0,0,0-1.319.759,1.281,1.281,0,0,1-.785.277A.974.974,0,0,1,13.01,11.728Z"
          transform="translate(-2.354 -3.17)" fill="#fff"/>
</svg>
