<svg xmlns="http://www.w3.org/2000/svg" width="23" height="14.661" viewBox="0 0 23 14.661">
  <path id="AA_Icon" data-name="AA Icon" d="M14.093,20.087a1.1,1.1,0,0,0,.7-.2,1.4,1.4,0,0,0,.411-.681l1.165-3.234h5.688L23.222,19.2a1.4,1.4,0,0,0,.411.681,1.117,1.117,0,0,0,.712.2,1.013,1.013,0,0,0,.733-.265.916.916,0,0,0,.276-.691,1.867,1.867,0,0,0-.125-.634L20.768,6.518a1.657,1.657,0,0,0-.577-.821,1.618,1.618,0,0,0-.962-.27,1.486,1.486,0,0,0-1.518,1.092L13.219,18.527a1.967,1.967,0,0,0-.114.613.914.914,0,0,0,.265.691A1,1,0,0,0,14.093,20.087Zm2.807-5.8,2.288-6.478h.062l2.288,6.478ZM3.289,20.076a.858.858,0,0,0,.572-.192,1.243,1.243,0,0,0,.354-.619l.759-2.225H8.8l.759,2.236a1.237,1.237,0,0,0,.364.619.923.923,0,0,0,.593.182.944.944,0,0,0,.665-.239.808.808,0,0,0,.26-.624,1.482,1.482,0,0,0-.036-.328,3.012,3.012,0,0,0-.1-.338L8.291,10.521a1.643,1.643,0,0,0-.541-.8,1.414,1.414,0,0,0-.873-.265,1.354,1.354,0,0,0-.842.26,1.705,1.705,0,0,0-.541.8L2.478,18.548a1.959,1.959,0,0,0-.094.338,1.832,1.832,0,0,0-.031.328.812.812,0,0,0,.255.629A.968.968,0,0,0,3.289,20.076Zm2.142-4.461,1.341-4.107h.218l1.352,4.107Z" transform="translate(-2.354 -5.426)" fill="#a3aaae"/>
</svg>
