<svg xmlns="http://www.w3.org/2000/svg" width="30" height="29.998" viewBox="0 0 30 29.998">
  <path id="Icon_ionic-ios-call" data-name="Icon ionic-ios-call" d="M33.623,27.991a25.2,25.2,0,0,0-5.264-3.522c-1.578-.758-2.155-.742-3.272.062-.929.672-1.531,1.3-2.6,1.062s-3.179-1.827-5.225-3.866S13.623,17.573,13.4,16.5s.4-1.671,1.062-2.6c.8-1.117.828-1.695.062-3.272A24.7,24.7,0,0,0,11,5.367c-1.148-1.148-1.406-.9-2.038-.672a11.6,11.6,0,0,0-1.867.992A5.631,5.631,0,0,0,4.853,8.053c-.445.961-.961,2.749,1.663,7.419a41.4,41.4,0,0,0,7.279,9.707h0l.008.008.008.008h0a41.56,41.56,0,0,0,9.707,7.279c4.67,2.624,6.459,2.109,7.419,1.663A5.535,5.535,0,0,0,33.3,31.9,11.6,11.6,0,0,0,34.3,30.03C34.522,29.4,34.779,29.139,33.623,27.991Z" transform="translate(-4.49 -4.503)" fill="#fff"/>
</svg>
