<svg xmlns="http://www.w3.org/2000/svg" width="38.983" height="16" viewBox="0 0 38.983 16">
    <path id="Icon_awesome-apple-pay" data-name="Icon awesome-apple-pay"
          d="M7.119,10.827a2.391,2.391,0,0,1-1.919.907,2.7,2.7,0,0,1,.688-1.986A2.863,2.863,0,0,1,7.8,8.768a2.9,2.9,0,0,1-.676,2.059m.664,1.048c-1.06-.061-1.967.6-2.467.6S4.038,11.9,3.2,11.923A3.131,3.131,0,0,0,.542,13.537c-1.145,1.967-.3,4.872.81,6.474.542.792,1.188,1.663,2.04,1.632.81-.03,1.127-.524,2.1-.524s1.267.524,2.12.512c.883-.018,1.437-.792,1.979-1.584a6.885,6.885,0,0,0,.883-1.821,2.877,2.877,0,0,1-1.724-2.613,2.93,2.93,0,0,1,1.395-2.455,3.01,3.01,0,0,0-2.363-1.285m6.115-2.2V21.54h1.845V17.484H18.3a3.767,3.767,0,0,0,3.965-3.916,3.723,3.723,0,0,0-3.9-3.9H13.9Zm1.845,1.553h2.126a2.215,2.215,0,0,1,2.515,2.351,2.225,2.225,0,0,1-2.522,2.363h-2.12Zm9.879,10.409a3.041,3.041,0,0,0,2.716-1.517h.037V21.54h1.705V15.632c0-1.711-1.37-2.82-3.478-2.82-1.955,0-3.4,1.121-3.459,2.655h1.663a1.621,1.621,0,0,1,1.742-1.212c1.127,0,1.76.524,1.76,1.492v.658l-2.3.14c-2.138.128-3.3,1-3.3,2.528A2.62,2.62,0,0,0,25.623,21.631Zm.5-1.407c-.981,0-1.608-.475-1.608-1.194,0-.749.6-1.182,1.754-1.249l2.046-.128v.67a2,2,0,0,1-2.193,1.9Zm6.243,4.544c1.8,0,2.643-.688,3.38-2.765l3.234-9.075H37.1l-2.168,7.01H34.9l-2.168-7.01H30.806l3.118,8.643-.171.524A1.467,1.467,0,0,1,32.2,23.331c-.146,0-.426-.018-.542-.03v1.425A6.384,6.384,0,0,0,32.365,24.768Z"
          transform="translate(0.004 -8.768)"/>
</svg>
