<svg xmlns="http://www.w3.org/2000/svg" width="43.856" height="18" viewBox="0 0 43.856 18">
    <path id="Icon_awesome-apple-pay" data-name="Icon awesome-apple-pay"
          d="M8.01,11.084A2.69,2.69,0,0,1,5.851,12.1a3.038,3.038,0,0,1,.774-2.234,3.221,3.221,0,0,1,2.145-1.1,3.26,3.26,0,0,1-.761,2.316m.747,1.179c-1.192-.069-2.213.678-2.775.678S4.543,12.3,3.6,12.317A3.522,3.522,0,0,0,.61,14.133c-1.288,2.213-.336,5.482.911,7.284.61.891,1.336,1.871,2.3,1.836.911-.034,1.268-.589,2.364-.589s1.425.589,2.384.576c.994-.021,1.617-.891,2.227-1.781a7.745,7.745,0,0,0,.994-2.049A3.237,3.237,0,0,1,9.846,16.47a3.3,3.3,0,0,1,1.569-2.761,3.387,3.387,0,0,0-2.659-1.446m6.879-2.48V23.136h2.076V18.573h2.871a4.238,4.238,0,0,0,4.461-4.406,4.189,4.189,0,0,0-4.392-4.385H15.636Zm2.076,1.747H20.1c1.8,0,2.83.959,2.83,2.645s-1.028,2.659-2.837,2.659H17.712Zm11.114,11.71a3.421,3.421,0,0,0,3.056-1.706h.041v1.6h1.919V16.49c0-1.925-1.542-3.172-3.912-3.172-2.2,0-3.83,1.261-3.892,2.987h1.871a1.824,1.824,0,0,1,1.96-1.364c1.268,0,1.98.589,1.98,1.679v.74l-2.59.158c-2.405.144-3.707,1.131-3.707,2.844S26.9,23.239,28.826,23.239Zm.562-1.583c-1.1,0-1.809-.534-1.809-1.343,0-.843.678-1.329,1.973-1.4l2.3-.144v.754a2.252,2.252,0,0,1-2.467,2.138Zm7.023,5.112c2.021,0,2.974-.774,3.8-3.111l3.638-10.209h-2.11L39.3,21.334h-.041l-2.439-7.887H34.657l3.508,9.723-.192.589a1.65,1.65,0,0,1-1.747,1.391c-.164,0-.48-.021-.61-.034v1.6A7.182,7.182,0,0,0,36.411,26.768Z"
          transform="translate(0.004 -8.768)" fill="#fff"/>
</svg>
