<svg xmlns="http://www.w3.org/2000/svg" width="18.334" height="15.18" viewBox="0 0 18.334 15.18">
    <path id="Path_93" data-name="Path 93"
          d="M2.354,12.32a.9.9,0,0,0,.313.693l6.113,6.113a.953.953,0,0,0,.664.283.919.919,0,0,0,.664-.254.845.845,0,0,0,.264-.635.92.92,0,0,0-.073-.366.941.941,0,0,0-.2-.3l-2.07-2.109L4.5,12.535l-.283.537,3.115.186H18.76A.905.905,0,0,0,19.429,13a.918.918,0,0,0,.259-.679.887.887,0,0,0-.928-.928H7.334l-3.115.186.283.547L8.027,8.9,10.1,6.793a.941.941,0,0,0,.2-.3.92.92,0,0,0,.073-.366.856.856,0,0,0-.264-.645.919.919,0,0,0-.664-.254A.873.873,0,0,0,9.1,5.3a1.209,1.209,0,0,0-.347.239L2.666,11.627A.92.92,0,0,0,2.354,12.32Z"
          transform="translate(-1.854 -4.73)" fill="#fff" stroke="#fff" stroke-width="1"/>
</svg>
