<svg xmlns="http://www.w3.org/2000/svg" width="15" height="14.334" viewBox="0 0 15 14.334">
    <path id="Path_81" data-name="Path 81"
          d="M4.76,15.976a.628.628,0,0,0,.506.12,1.485,1.485,0,0,0,.606-.29l3.506-2.578,3.513,2.578a1.537,1.537,0,0,0,.613.29.608.608,0,0,0,.5-.12.7.7,0,0,0,.269-.446,1.355,1.355,0,0,0-.078-.659l-1.388-4.13,3.542-2.536a1.51,1.51,0,0,0,.457-.492.622.622,0,0,0,.039-.514.657.657,0,0,0-.34-.393,1.367,1.367,0,0,0-.652-.124L11.5,6.711,10.186,2.56a1.466,1.466,0,0,0-.326-.588.656.656,0,0,0-.482-.2.648.648,0,0,0-.475.2,1.466,1.466,0,0,0-.326.588L7.26,6.711,2.918,6.682a1.365,1.365,0,0,0-.655.124.688.688,0,0,0-.344.386.628.628,0,0,0,.043.521,1.552,1.552,0,0,0,.46.492l3.542,2.536-1.388,4.13a1.391,1.391,0,0,0-.081.659A.688.688,0,0,0,4.76,15.976Z"
          transform="translate(-1.882 -1.773)" fill="#00aff0"/>
</svg>
