<svg xmlns="http://www.w3.org/2000/svg" width="20" height="15.583" viewBox="0 0 20 15.583">
    <path id="Path_112" data-name="Path 112"
          d="M12.354,16.275a4.293,4.293,0,0,1-2.217-.587A4.431,4.431,0,0,1,8.546,14.1a4.481,4.481,0,0,1,0-4.451,4.465,4.465,0,0,1,1.591-1.591,4.449,4.449,0,0,1,4.434,0,4.465,4.465,0,0,1,1.591,1.591,4.481,4.481,0,0,1,0,4.451,4.431,4.431,0,0,1-1.591,1.587A4.293,4.293,0,0,1,12.354,16.275Zm0-1.346a2.91,2.91,0,0,0,1.531-.416,3.178,3.178,0,0,0,1.1-1.1,3.076,3.076,0,0,0,0-3.075,3.1,3.1,0,0,0-1.1-1.1,3.088,3.088,0,0,0-3.066,0,3.05,3.05,0,0,0-1.1,1.1,2.972,2.972,0,0,0-.407,1.539,2.926,2.926,0,0,0,.412,1.535,3.178,3.178,0,0,0,1.1,1.1A2.91,2.91,0,0,0,12.354,14.928ZM4.969,18.753H19.738a2.674,2.674,0,0,0,1.955-.652,2.6,2.6,0,0,0,.66-1.93V7.664a2.6,2.6,0,0,0-.66-1.93,2.674,2.674,0,0,0-1.955-.652h-2.23a2.273,2.273,0,0,1-.519-.047.989.989,0,0,1-.352-.163,2.691,2.691,0,0,1-.347-.313l-.652-.712a2.167,2.167,0,0,0-.678-.506,2.368,2.368,0,0,0-.986-.172H10.681a2.368,2.368,0,0,0-.986.172,2.167,2.167,0,0,0-.678.506l-.652.712a1.907,1.907,0,0,1-.51.412,1.663,1.663,0,0,1-.7.111H4.969a2.674,2.674,0,0,0-1.955.652,2.6,2.6,0,0,0-.66,1.93v8.508a2.6,2.6,0,0,0,.66,1.93A2.674,2.674,0,0,0,4.969,18.753ZM17.285,8.89a1.007,1.007,0,0,1,.317-.742,1.056,1.056,0,0,1,1.5,0,1.036,1.036,0,0,1,0,1.492,1.075,1.075,0,0,1-.746.313,1.045,1.045,0,0,1-.755-.309A1.013,1.013,0,0,1,17.285,8.89Z"
          transform="translate(-2.354 -3.17)" fill="rgba(0,0,0,0.7)"/>
</svg>
