<svg xmlns="http://www.w3.org/2000/svg" width="23" height="22.999" viewBox="0 0 23 22.999">
  <path id="Icon_awesome-chrome" data-name="Icon awesome-chrome" d="M6.1,10.277,2.555,4.833A11.5,11.5,0,0,1,21.762,6.878l-9.52-.5A6.044,6.044,0,0,0,6.1,10.277Zm1.526,1.785A3.877,3.877,0,1,0,11.5,8.186,3.875,3.875,0,0,0,7.623,12.063Zm14.6-4.136-6.478.334a6.079,6.079,0,0,1,.306,7.29l-5.2,7.994A11.5,11.5,0,0,0,22.226,7.926ZM6.2,14.27,1.873,5.761A11.506,11.506,0,0,0,9.715,23.419l2.954-5.787A6.074,6.074,0,0,1,6.2,14.27Z" transform="translate(0 -0.562)" fill="#a3aaae"/>
</svg>
