<svg xmlns="http://www.w3.org/2000/svg" width="20" height="25" viewBox="0 0 20 25">
  <path id="ios_copy" data-name="ios copy" d="M2902.167-2369.875a1.672,1.672,0,0,1-1.667-1.667v-18.333a1.672,1.672,0,0,1,1.667-1.667h1.041v17.292a1.672,1.672,0,0,0,1.667,1.667h12.292v1.042a1.672,1.672,0,0,1-1.667,1.667Zm4.167-4.167a1.671,1.671,0,0,1-1.667-1.667v-17.5a1.671,1.671,0,0,1,1.667-1.667h6.823v4.167a2.347,2.347,0,0,0,2.344,2.343h5v12.657a1.671,1.671,0,0,1-1.667,1.667Zm9.167-15.677a1,1,0,0,1-1-.989v-3.776a.384.384,0,0,1,.386-.385,1.943,1.943,0,0,1,1.072.385l4.016,3.344a1.45,1.45,0,0,1,.521,1.108.313.313,0,0,1-.312.313Z" transform="translate(-2900.5 2394.875)" fill="#a3aaae"/>
</svg>
