<svg xmlns="http://www.w3.org/2000/svg" width="57.721" height="9.117" viewBox="0 0 57.721 9.117">
    <path id="Path_114" data-name="Path 114"
          d="M7.377-2.777A3.08,3.08,0,0,1,6.369-.647,3.436,3.436,0,0,1,4.031.117a3.327,3.327,0,0,1-1.8-.483,3.173,3.173,0,0,1-1.2-1.374A4.958,4.958,0,0,1,.6-3.809v-.8a4.994,4.994,0,0,1,.428-2.127A3.224,3.224,0,0,1,2.253-8.15a3.424,3.424,0,0,1,1.849-.5,3.29,3.29,0,0,1,2.273.768,3.207,3.207,0,0,1,1,2.168H5.9A2.107,2.107,0,0,0,5.364-7.04,1.772,1.772,0,0,0,4.1-7.447a1.732,1.732,0,0,0-1.485.706,3.526,3.526,0,0,0-.53,2.071v.756a3.741,3.741,0,0,0,.5,2.109,1.643,1.643,0,0,0,1.45.727,1.917,1.917,0,0,0,1.313-.393A2.047,2.047,0,0,0,5.9-2.777Zm4.506-2.262a3.523,3.523,0,0,0-.58-.047,1.306,1.306,0,0,0-1.318.75V0H8.561V-6.34H9.92l.035.709a1.6,1.6,0,0,1,1.43-.826,1.333,1.333,0,0,1,.5.082ZM15.574.117A2.946,2.946,0,0,1,13.38-.735a3.093,3.093,0,0,1-.841-2.271v-.176a3.8,3.8,0,0,1,.366-1.7,2.787,2.787,0,0,1,1.028-1.163,2.719,2.719,0,0,1,1.477-.416,2.488,2.488,0,0,1,2,.826,3.494,3.494,0,0,1,.706,2.338v.574H13.975A1.9,1.9,0,0,0,14.5-1.477a1.574,1.574,0,0,0,1.157.457,1.928,1.928,0,0,0,1.594-.791l.768.732A2.563,2.563,0,0,1,17-.2,3.183,3.183,0,0,1,15.574.117ZM15.4-5.314a1.2,1.2,0,0,0-.946.41A2.126,2.126,0,0,0,14-3.762h2.713v-.105a1.731,1.731,0,0,0-.381-1.081A1.19,1.19,0,0,0,15.4-5.314Zm3.551,2.1a3.769,3.769,0,0,1,.68-2.353,2.178,2.178,0,0,1,1.822-.888,2.069,2.069,0,0,1,1.629.7V-9H24.51V0H23.221l-.07-.656a2.1,2.1,0,0,1-1.705.773,2.166,2.166,0,0,1-1.8-.9A3.907,3.907,0,0,1,18.955-3.217Zm1.424.123a2.639,2.639,0,0,0,.372,1.509,1.207,1.207,0,0,0,1.058.542,1.345,1.345,0,0,0,1.277-.779V-4.529a1.324,1.324,0,0,0-1.266-.762,1.216,1.216,0,0,0-1.066.548A2.939,2.939,0,0,0,20.379-3.094ZM27.51,0H26.086V-6.34H27.51ZM26-7.986a.756.756,0,0,1,.208-.545.786.786,0,0,1,.595-.217.8.8,0,0,1,.6.217.75.75,0,0,1,.211.545.733.733,0,0,1-.211.536.8.8,0,0,1-.6.214.792.792,0,0,1-.595-.214A.738.738,0,0,1,26-7.986Zm4.846.105V-6.34h1.119v1.055H30.844v3.539a.779.779,0,0,0,.144.524.666.666,0,0,0,.513.161,2.193,2.193,0,0,0,.5-.059v1.1a3.507,3.507,0,0,1-.937.135q-1.641,0-1.641-1.811V-5.285H28.377V-6.34H29.42V-7.881Zm7.8,6.861a1.287,1.287,0,0,0,.885-.311A1.061,1.061,0,0,0,39.9-2.1h1.342a2.091,2.091,0,0,1-.369,1.1,2.421,2.421,0,0,1-.937.812,2.794,2.794,0,0,1-1.277.3,2.7,2.7,0,0,1-2.109-.861,3.416,3.416,0,0,1-.779-2.379V-3.27a3.359,3.359,0,0,1,.773-2.317,2.678,2.678,0,0,1,2.109-.87A2.6,2.6,0,0,1,40.5-5.8a2.361,2.361,0,0,1,.747,1.731H39.9a1.3,1.3,0,0,0-.372-.9,1.2,1.2,0,0,0-.888-.352,1.253,1.253,0,0,0-1.066.5A2.556,2.556,0,0,0,37.2-3.293v.229a2.6,2.6,0,0,0,.372,1.538A1.252,1.252,0,0,0,38.643-1.02ZM46.107,0a2.2,2.2,0,0,1-.164-.592,2.216,2.216,0,0,1-1.664.709,2.237,2.237,0,0,1-1.559-.545,1.743,1.743,0,0,1-.6-1.348,1.8,1.8,0,0,1,.753-1.556,3.649,3.649,0,0,1,2.153-.542H45.9v-.416a1.11,1.11,0,0,0-.275-.788,1.092,1.092,0,0,0-.838-.3,1.254,1.254,0,0,0-.8.243.753.753,0,0,0-.311.618H42.252a1.58,1.58,0,0,1,.346-.976,2.3,2.3,0,0,1,.94-.712,3.3,3.3,0,0,1,1.327-.258,2.66,2.66,0,0,1,1.775.56,2,2,0,0,1,.68,1.573v2.859A3.241,3.241,0,0,0,47.561-.1V0ZM44.543-1.025a1.62,1.62,0,0,0,.794-.205,1.37,1.37,0,0,0,.56-.551v-1.2h-.768a2.1,2.1,0,0,0-1.189.275.892.892,0,0,0-.4.779.832.832,0,0,0,.272.653A1.055,1.055,0,0,0,44.543-1.025Zm7.588-4.014a3.523,3.523,0,0,0-.58-.047,1.306,1.306,0,0,0-1.318.75V0H48.809V-6.34h1.359l.035.709a1.6,1.6,0,0,1,1.43-.826,1.333,1.333,0,0,1,.5.082Zm.633,1.822a3.769,3.769,0,0,1,.68-2.353,2.178,2.178,0,0,1,1.822-.888,2.069,2.069,0,0,1,1.629.7V-9h1.424V0H57.029l-.07-.656a2.1,2.1,0,0,1-1.705.773,2.166,2.166,0,0,1-1.8-.9A3.907,3.907,0,0,1,52.764-3.217Zm1.424.123a2.639,2.639,0,0,0,.372,1.509,1.207,1.207,0,0,0,1.058.542,1.345,1.345,0,0,0,1.277-.779V-4.529a1.324,1.324,0,0,0-1.266-.762,1.216,1.216,0,0,0-1.066.548A2.939,2.939,0,0,0,54.188-3.094Z"
          transform="translate(-0.598 9)" fill="rgba(0,0,0,0.7)"/>
</svg>
