<svg xmlns="http://www.w3.org/2000/svg" width="30" height="29.983" viewBox="0 0 30 29.983">
    <g id="dollar_sign" data-name="dollar sign" transform="translate(-254.426 -641.017)">
        <rect id="Rectangle_657" data-name="Rectangle 657" width="27" height="27" rx="7" transform="translate(255 642)"
              fill="#fff"/>
        <g id="Path_74" data-name="Path 74" transform="translate(252.072 637.242)" fill="#47c34c">
            <path d="M 27.1428165435791 33.25830841064453 L 7.564225673675537 33.25830841064453 C 5.98796558380127 33.25830841064453 4.795195579528809 32.8724479675293 4.019065856933594 32.1114387512207 C 3.245665550231934 31.35308837890625 2.853515625 30.17702674865723 2.853515625 28.61593818664551 L 2.853515625 8.917757987976074 C 2.853515625 7.3566575050354 3.245665550231934 6.180607795715332 4.019065856933594 5.422267436981201 C 4.795195579528809 4.661257743835449 5.98796558380127 4.275387763977051 7.564225673675537 4.275387763977051 L 27.1428165435791 4.275387763977051 C 28.72913551330566 4.275387763977051 29.92398643493652 4.663357734680176 30.69417572021484 5.428507804870605 C 31.46345520019531 6.192757606506348 31.853515625 7.366707801818848 31.853515625 8.917757987976074 L 31.853515625 28.61593818664551 C 31.853515625 30.16697692871094 31.46345520019531 31.3409366607666 30.69417572021484 32.10519790649414 C 29.92398643493652 32.87034606933594 28.72913551330566 33.25830841064453 27.1428165435791 33.25830841064453 Z M 16.118896484375 26.70717811584473 L 16.118896484375 27.43711853027344 C 16.118896484375 27.79990768432617 16.24875640869141 28.11653709411621 16.49442481994629 28.35276794433594 C 16.73468589782715 28.58379745483398 17.04947471618652 28.70590782165527 17.40476608276367 28.70590782165527 C 17.74530601501465 28.70590782165527 18.05477523803711 28.58602714538574 18.29970550537109 28.35923767089844 C 18.55546569824219 28.12242698669434 18.69064521789551 27.80356788635254 18.69064521789551 27.43711853027344 L 18.69064521789551 26.72101974487305 C 19.91410255432129 26.54421615600586 20.97220802307129 26.0909366607666 21.84120559692383 25.37043762207031 C 22.85679626464844 24.52839851379395 23.37173652648926 23.38437843322754 23.37173652648926 21.97014808654785 C 23.37173652648926 20.67991828918457 22.94399642944336 19.63087844848633 22.10039520263672 18.85217666625977 C 21.31137084960938 18.12385177612305 20.16452407836914 17.60610961914062 18.69064521789551 17.31259918212891 L 18.69064521789551 14.02398872375488 C 18.90539169311523 14.11493110656738 19.09560012817383 14.2326545715332 19.26474571228027 14.378737449646 C 19.57319641113281 14.64512729644775 19.7928352355957 14.98838806152344 19.93623542785645 15.4281177520752 L 19.93994522094727 15.43951797485352 L 19.94420623779297 15.45071792602539 C 20.23253631591797 16.2094669342041 20.79897499084473 16.62732696533203 21.53916549682617 16.62732696533203 C 21.97986602783203 16.62732696533203 22.35286521911621 16.48204803466797 22.6478157043457 16.19552803039551 C 22.94257545471191 15.90916728973389 23.09838485717773 15.52522754669189 23.09838485717773 15.0851879119873 C 23.09838485717773 14.97501754760742 23.09148597717285 14.86051750183105 23.0778751373291 14.74487781524658 C 23.06406593322754 14.62745761871338 23.04294586181641 14.51146793365479 23.01511573791504 14.40012741088867 C 22.75776481628418 13.40918731689453 22.1833553314209 12.58045768737793 21.30673599243164 11.93252754211426 C 20.56216239929199 11.38218116760254 19.68374443054199 11.01647090911865 18.69064521789551 10.84259605407715 L 18.69064521789551 10.1478271484375 C 18.69064521789551 9.770207405090332 18.55546569824219 9.445437431335449 18.29970550537109 9.208627700805664 C 18.05476570129395 8.981827735900879 17.74529647827148 8.861948013305664 17.40476608276367 8.861948013305664 C 17.04948616027832 8.861948013305664 16.73469543457031 8.984067916870117 16.49442481994629 9.215097427368164 C 16.24875640869141 9.451327323913574 16.118896484375 9.773858070373535 16.118896484375 10.1478271484375 L 16.118896484375 10.83814144134521 C 14.91640186309814 11.03516483306885 13.89919471740723 11.50139331817627 13.09020519256592 12.22725772857666 C 12.15245532989502 13.06868743896484 11.67697525024414 14.15667724609375 11.67697525024414 15.46103763580322 C 11.67697525024414 16.6835880279541 12.09055519104004 17.68395805358887 12.90622520446777 18.43435668945312 C 13.64667415618896 19.1155834197998 14.72682476043701 19.64278411865234 16.118896484375 20.0026969909668 L 16.118896484375 23.61343383789062 C 15.77576065063477 23.51230430603027 15.4900369644165 23.36261558532715 15.26569557189941 23.16593742370605 C 14.92378520965576 22.86616706848145 14.70318603515625 22.51196670532227 14.59130573272705 22.08310699462891 L 14.58637523651123 22.06422805786133 L 14.57999515533447 22.04577827453613 C 14.44504547119141 21.65592765808105 14.24109554290771 21.35556793212891 13.97380542755127 21.15304756164551 C 13.69784545898438 20.94400787353516 13.36922550201416 20.83802795410156 12.99702548980713 20.83802795410156 C 12.53471565246582 20.83802795410156 12.13604545593262 20.99673843383789 11.84411525726318 21.2970085144043 C 11.55182552337646 21.59763717651367 11.40362548828125 21.97355842590332 11.40362548828125 22.41433715820312 C 11.40362548828125 22.5458869934082 11.42014598846436 22.67865753173828 11.45272541046143 22.80896759033203 C 11.47054576873779 22.88024711608887 11.48406600952148 22.95227813720703 11.49291515350342 23.02305793762207 L 11.49719524383545 23.05728721618652 L 11.50613594055176 23.09059715270996 C 11.7867956161499 24.13669776916504 12.40166568756104 24.99823760986328 13.33367538452148 25.65127754211426 C 14.12746715545654 26.20746803283691 15.06260395050049 26.56173133850098 16.118896484375 26.70717811584473 Z M 18.69064521789551 23.6371898651123 L 18.69064521789551 20.64581489562988 C 19.30948829650879 20.83590316772461 19.60234260559082 21.04835319519043 19.74066543579102 21.20233726501465 C 19.95915603637695 21.4455680847168 20.06536483764648 21.7414379119873 20.06536483764648 22.10682678222656 C 20.06536483764648 22.52931785583496 19.92131614685059 22.87665748596191 19.62498474121094 23.16869735717773 C 19.4075756072998 23.38296318054199 19.09446907043457 23.53974723815918 18.69064521789551 23.6371898651123 Z M 16.118896484375 16.63805770874023 C 15.76896190643311 16.49124526977539 15.50046825408936 16.32851219177246 15.3174352645874 16.15190696716309 C 15.08951568603516 15.93197727203369 14.98335552215576 15.66901779174805 14.98335552215576 15.32436752319336 C 14.98335552215576 14.98394775390625 15.11807537078857 14.68781757354736 15.39521598815918 14.41907787322998 C 15.58250141143799 14.23746109008789 15.82471466064453 14.09489154815674 16.118896484375 13.99266052246094 L 16.118896484375 16.63805770874023 Z"
                  stroke="none"/>
            <path d="M 27.1428165435791 32.75830841064453 C 28.59234619140625 32.75830841064453 29.66863632202148 32.41922760009766 30.34177589416504 31.75048828125 C 31.01311492919922 31.08353805541992 31.353515625 30.02891731262207 31.353515625 28.61593818664551 L 31.353515625 8.917757987976074 C 31.353515625 7.504777431488037 31.01311492919922 6.450167655944824 30.34177589416504 5.783217430114746 C 29.66863632202148 5.114467620849609 28.59234619140625 4.775387763977051 27.1428165435791 4.775387763977051 L 7.564225673675537 4.775387763977051 C 6.123475551605225 4.775387763977051 5.048495769500732 5.113147735595703 4.369125843048096 5.779287815093994 C 3.695215702056885 6.440067768096924 3.353515625 7.496007442474365 3.353515625 8.917757987976074 L 3.353515625 28.61593818664551 C 3.353515625 30.03768730163574 3.695215702056885 31.0936279296875 4.369125843048096 31.75441741943359 C 5.048495769500732 32.42054748535156 6.123485565185547 32.75830841064453 7.564225673675537 32.75830841064453 L 27.1428165435791 32.75830841064453 M 15.61889553070068 27.13100051879883 C 14.65814971923828 26.94411277770996 13.79597854614258 26.58572196960449 13.04675579071045 26.06075668334961 C 12.01595592498779 25.33849716186523 11.3351354598999 24.38277816772461 11.02321529388428 23.22016716003418 L 11.00533580780029 23.15352821350098 L 10.99677562713623 23.08506774902344 C 10.99041557312012 23.03417778015137 10.98061561584473 22.98207855224609 10.96765518188477 22.93024826049805 C 10.9251651763916 22.76030731201172 10.90362548828125 22.58672714233398 10.90362548828125 22.41433715820312 C 10.90362548828125 21.84696769714355 11.1048755645752 21.34007835388184 11.48561573028564 20.94845771789551 C 11.87388515472412 20.54910850524902 12.39651584625244 20.33802795410156 12.99702548980713 20.33802795410156 C 13.47388553619385 20.33802795410156 13.91604518890381 20.48202705383301 14.27575588226318 20.75451850891113 C 14.6232852935791 21.0178279876709 14.88461589813232 21.39724731445312 15.05248546600342 21.88223838806152 L 15.0652551651001 21.91912841796875 L 15.07510566711426 21.9568977355957 C 15.16091537475586 22.28579711914062 15.33107566833496 22.55829811096191 15.59531593322754 22.78996849060059 C 15.60306453704834 22.79676055908203 15.61092662811279 22.80348587036133 15.61889553070068 22.81013870239258 L 15.61889553070068 20.38439178466797 C 14.31309986114502 20.00642395019531 13.31120109558105 19.48635292053223 12.56769561767578 18.80232810974121 C 11.6448860168457 17.95334815979004 11.17697525024414 16.82917785644531 11.17697525024414 15.46103763580322 C 11.17697525024414 14.00861740112305 11.70833587646484 12.79541778564453 12.7562952041626 11.85510730743408 C 13.54140186309814 11.15066719055176 14.50145816802979 10.6715087890625 15.61889553070068 10.42500972747803 L 15.61889553070068 10.1478271484375 C 15.61889553070068 9.634607315063477 15.80180549621582 9.187438011169434 16.14786529541016 8.854687690734863 C 16.48309516906738 8.532337188720703 16.91772651672363 8.361948013305664 17.40476608276367 8.361948013305664 C 17.87347602844238 8.361948013305664 18.3004150390625 8.527857780456543 18.6394157409668 8.841747283935547 C 19.00003623962402 9.175647735595703 19.19064521789551 9.627287864685059 19.19064521789551 10.1478271484375 L 19.19064521789551 10.43425941467285 C 20.0928783416748 10.64436531066895 20.90179634094238 11.01146030426025 21.60393524169922 11.53043746948242 C 22.57495498657227 12.24814796447754 23.21219635009766 13.16986751556396 23.4979362487793 14.2700080871582 L 23.49907493591309 14.27442741394043 L 23.50018501281738 14.27885723114014 C 23.53317642211914 14.41080760955811 23.55816650390625 14.54793739318848 23.57445526123047 14.68644714355469 C 23.59033584594727 14.82141780853271 23.59838485717773 14.95556735992432 23.59838485717773 15.0851879119873 C 23.59838485717773 15.66349792480469 23.39015579223633 16.17145729064941 22.99620628356934 16.55415725708008 C 22.61022567749023 16.92912673950195 22.10638618469238 17.12732696533203 21.53916549682617 17.12732696533203 C 20.59052467346191 17.12732696533203 19.83882522583008 16.58096694946289 19.47681617736816 15.62833786010742 L 19.46829605102539 15.60592746734619 L 19.46086502075195 15.58312797546387 C 19.39204788208008 15.37208271026611 19.30268287658691 15.190185546875 19.19064521789551 15.03407382965088 L 19.19064521789551 16.90955352783203 C 20.56552124023438 17.23345756530762 21.65680694580078 17.76226043701172 22.43953514099121 18.48477745056152 C 23.3898754119873 19.36200714111328 23.87173652648926 20.53465843200684 23.87173652648926 21.97014808654785 C 23.87173652648926 23.5402774810791 23.29593467712402 24.81380844116211 22.16033554077148 25.75534820556641 C 21.32271957397461 26.4498291015625 20.32682228088379 26.91446876525879 19.19064521789551 27.14222526550293 L 19.19064521789551 27.43711853027344 C 19.19064521789551 27.94648742675781 19.00003623962402 28.3922176361084 18.6394157409668 28.72611808776855 C 18.3004264831543 29.03999710083008 17.87348556518555 29.20590782165527 17.40476608276367 29.20590782165527 C 16.91772651672363 29.20590782165527 16.48309516906738 29.0355281829834 16.14786529541016 28.71317672729492 C 15.80180549621582 28.38042831420898 15.61889553070068 27.93916702270508 15.61889553070068 27.43711853027344 L 15.61889553070068 27.13100051879883 M 19.19064521789551 22.88459777832031 C 19.22086715698242 22.86157035827637 19.2486743927002 22.83756256103516 19.27402496337891 22.81257820129395 C 19.47551536560059 22.61399841308594 19.56536483764648 22.39633750915527 19.56536483764648 22.10682678222656 C 19.56536483764648 21.79534721374512 19.46025657653809 21.63839721679688 19.36870574951172 21.53647804260254 C 19.34082412719727 21.50543594360352 19.28737831115723 21.45608520507812 19.19064521789551 21.3962574005127 L 19.19064521789551 22.88459777832031 M 27.1428165435791 33.75830841064453 L 7.564225673675537 33.75830841064453 C 5.844405651092529 33.75830841064453 4.545995712280273 33.32834625244141 3.669005632400513 32.46844863891602 C 2.792015552520752 31.60852813720703 2.353515625 30.3243579864502 2.353515625 28.61593818664551 L 2.353515625 8.917757987976074 C 2.353515625 7.209327697753906 2.792015552520752 5.925167560577393 3.669005632400513 5.065257549285889 C 4.545995712280273 4.205347537994385 5.844405651092529 3.775387525558472 7.564225673675537 3.775387525558472 L 27.1428165435791 3.775387525558472 C 28.87402534484863 3.775387525558472 30.1752758026123 4.208197593688965 31.04656600952148 5.073797702789307 C 31.91786575317383 5.939397811889648 32.353515625 7.220717430114746 32.353515625 8.917757987976074 L 32.353515625 28.61593818664551 C 32.353515625 30.3129768371582 31.91786575317383 31.59429740905762 31.04656600952148 32.45990753173828 C 30.1752758026123 33.32549667358398 28.87402534484863 33.75830841064453 27.1428165435791 33.75830841064453 Z M 12.99702548980713 21.33802795410156 C 12.66672515869141 21.33802795410156 12.40192604064941 21.44053840637207 12.20260524749756 21.64554786682129 C 12.00328540802002 21.85055732727051 11.90362548828125 22.10682678222656 11.90362548828125 22.41433715820312 C 11.90362548828125 22.50545692443848 11.91501522064209 22.59657669067383 11.93779563903809 22.68768692016602 C 11.96057605743408 22.77880668640137 11.97766590118408 22.86991691589355 11.98905563354492 22.96103668212891 C 12.23962593078613 23.89497756958008 12.78346538543701 24.65522766113281 13.62059593200684 25.24178695678711 C 14.45772552490234 25.82834815979004 15.45715522766113 26.16718673706055 16.618896484375 26.25830841064453 L 16.618896484375 27.43711853027344 C 16.618896484375 27.66490745544434 16.69292640686035 27.8499870300293 16.84098625183105 27.99235725402832 C 16.98904609680176 28.13472747802734 17.17697525024414 28.20590782165527 17.40476608276367 28.20590782165527 C 17.62116622924805 28.20590782165527 17.80624580383301 28.13472747802734 17.96000480651855 27.99235725402832 C 18.11376571655273 27.8499870300293 18.19064521789551 27.66490745544434 18.19064521789551 27.43711853027344 L 18.19064521789551 26.27538681030273 C 19.51182556152344 26.16149711608887 20.62230491638184 25.73153686523438 21.52207565307617 24.98552703857422 C 22.42185592651367 24.2395076751709 22.87173652648926 23.23438835144043 22.87173652648926 21.97014808654785 C 22.87173652648926 20.8198070526123 22.5015754699707 19.9029483795166 21.76125526428223 19.21957778930664 C 21.02093505859375 18.53620719909668 19.9332447052002 18.05784797668457 18.49815559387207 17.78449821472168 L 18.19064521789551 17.73324775695801 L 18.19064521789551 13.35966777801514 C 18.74873542785645 13.46217727661133 19.21570587158203 13.67572784423828 19.59155654907227 14.00032806396484 C 19.96740531921387 14.32492733001709 20.24075508117676 14.7491979598999 20.41159629821777 15.27310752868652 C 20.62800598144531 15.8425874710083 21.00385475158691 16.12732696533203 21.53916549682617 16.12732696533203 C 21.8466854095459 16.12732696533203 22.10009574890137 16.030517578125 22.29941558837891 15.83688735961914 C 22.49872589111328 15.64326763153076 22.59838485717773 15.39269733428955 22.59838485717773 15.0851879119873 C 22.59838485717773 14.99406719207764 22.59269523620605 14.90010738372803 22.58130645751953 14.803297996521 C 22.56991577148438 14.70647716522217 22.55282592773438 14.61251735687256 22.5300464630127 14.52139759063721 C 22.30226516723633 13.64440727233887 21.79542541503906 12.91547775268555 21.00954627990723 12.33461761474609 C 20.22367477416992 11.75374794006348 19.28403472900391 11.40067768096924 18.19064521789551 11.27538776397705 L 18.19064521789551 10.1478271484375 C 18.19064521789551 9.908647537231445 18.11376571655273 9.717877388000488 17.96000480651855 9.575507164001465 C 17.80624580383301 9.433137893676758 17.62116622924805 9.361948013305664 17.40476608276367 9.361948013305664 C 17.17697525024414 9.361948013305664 16.98904609680176 9.433137893676758 16.84098625183105 9.575507164001465 C 16.69292640686035 9.717877388000488 16.618896484375 9.908647537231445 16.618896484375 10.1478271484375 L 16.618896484375 11.27538776397705 C 15.32048606872559 11.41206741333008 14.25556564331055 11.85340785980225 13.42412567138672 12.5994176864624 C 12.59269523620605 13.34543800354004 12.17697525024414 14.29930782318115 12.17697525024414 15.46103763580322 C 12.17697525024414 16.54303741455078 12.53289604187012 17.41149711608887 13.2447452545166 18.06638717651367 C 13.95658588409424 18.72128677368164 15.01296520233154 19.21957778930664 16.41387557983398 19.5612678527832 L 16.618896484375 19.59542846679688 L 16.618896484375 24.22527694702148 C 15.91274547576904 24.13415718078613 15.35180568695068 23.90636825561523 14.93608570098877 23.54190826416016 C 14.52037525177002 23.17743682861328 14.24417591094971 22.73324775695801 14.10749530792236 22.20932769775391 C 14.00499534606934 21.91319847106934 13.85977554321289 21.6939582824707 13.67185592651367 21.55157852172852 C 13.48392581939697 21.40921783447266 13.25898551940918 21.33802795410156 12.99702548980713 21.33802795410156 Z M 18.19064521789551 24.22527694702148 L 18.19064521789551 19.97128677368164 L 18.49815559387207 20.07379722595215 C 19.27264595031738 20.26741790771484 19.81080627441406 20.53221702575684 20.11262512207031 20.86820793151855 C 20.4144458770752 21.20420837402344 20.56536483764648 21.6170768737793 20.56536483764648 22.10682678222656 C 20.56536483764648 22.66490745544434 20.3688850402832 23.13757705688477 19.97595596313477 23.52481842041016 C 19.58301544189453 23.91206741333008 18.98790550231934 24.14554786682129 18.19064521789551 24.22527694702148 Z M 16.618896484375 17.34030723571777 L 16.49929618835449 17.30613708496094 C 15.80453586578369 17.08973693847656 15.29485607147217 16.82492828369141 14.97025585174561 16.51171684265137 C 14.64565563201904 16.19850730895996 14.48335552215576 15.80272769927979 14.48335552215576 15.32436752319336 C 14.48335552215576 14.84600734710693 14.67128562927246 14.42459774017334 15.04713535308838 14.06012725830078 C 15.42299556732178 13.69565773010254 15.94690608978271 13.46217727661133 16.618896484375 13.35966777801514 L 16.618896484375 17.34030723571777 Z"
                  stroke="none" fill="#47c34c"/>
        </g>
    </g>
</svg>
