<svg xmlns="http://www.w3.org/2000/svg" width="70" height="70" viewBox="0 0 70 70">
    <path id="Path_76" data-name="Path 76"
          d="M36.65,72.838a33.593,33.593,0,0,0,13.539-2.755A35.864,35.864,0,0,0,68.914,51.359,33.656,33.656,0,0,0,71.65,37.838a33.656,33.656,0,0,0-2.737-13.521A35.88,35.88,0,0,0,50.153,5.575,33.784,33.784,0,0,0,36.614,2.838,33.606,33.606,0,0,0,23.147,5.575,35.88,35.88,0,0,0,4.387,24.317,33.656,33.656,0,0,0,1.65,37.838,33.466,33.466,0,0,0,4.405,51.359,35.981,35.981,0,0,0,23.147,70.083,33.5,33.5,0,0,0,36.65,72.838Zm0-6.445A27.938,27.938,0,0,1,25.56,64.178a28.484,28.484,0,0,1-15.2-15.213,28.228,28.228,0,0,1-2.2-11.127,28.136,28.136,0,0,1,2.2-11.091A28.6,28.6,0,0,1,25.542,11.5,27.809,27.809,0,0,1,36.614,9.283,27.99,27.99,0,0,1,47.759,11.5,28.775,28.775,0,0,1,62.99,26.747,27.938,27.938,0,0,1,65.2,37.838a27.4,27.4,0,0,1-2.2,11.127,29.03,29.03,0,0,1-6.121,9.092,28.417,28.417,0,0,1-9.074,6.121A28.119,28.119,0,0,1,36.65,66.392Zm0-9.254a1.527,1.527,0,0,0,1.1-.432,1.479,1.479,0,0,0,.45-1.116V53.213A12.04,12.04,0,0,0,45,50.585a7.577,7.577,0,0,0,2.737-6.157,7.2,7.2,0,0,0-2.251-5.545,13.227,13.227,0,0,0-6.68-2.917l-.612-.108V26.891a6.053,6.053,0,0,1,2.9,1.332,5.56,5.56,0,0,1,1.674,2.629,2.306,2.306,0,0,0,2.269,1.692,2.133,2.133,0,0,0,1.548-.594,2.039,2.039,0,0,0,.612-1.53,4.22,4.22,0,0,0-.036-.558,2.552,2.552,0,0,0-.144-.558,7.823,7.823,0,0,0-3.079-4.465,11.835,11.835,0,0,0-5.743-2.16v-2.3A1.51,1.51,0,0,0,36.65,18.79a1.4,1.4,0,0,0-1.584,1.584v2.3A11.2,11.2,0,0,0,28.549,25.4a7.506,7.506,0,0,0-2.521,5.815,6.818,6.818,0,0,0,2.178,5.275,14.267,14.267,0,0,0,6.427,3.007l.432.072v9.506a6.632,6.632,0,0,1-3.475-1.44,5.19,5.19,0,0,1-1.674-2.7,2.915,2.915,0,0,0-.9-1.314,2.177,2.177,0,0,0-3.565,1.746,2.661,2.661,0,0,0,.054.522q.054.27.126.594a8.033,8.033,0,0,0,3.313,4.591,12.472,12.472,0,0,0,6.121,2.106V55.59A1.385,1.385,0,0,0,36.65,57.138ZM35.066,35.065l-.252-.072a7.632,7.632,0,0,1-3.169-1.638,3.275,3.275,0,0,1-1.008-2.431,3.421,3.421,0,0,1,1.188-2.557,6.165,6.165,0,0,1,3.241-1.476ZM38.2,40.394l.684.144a6.917,6.917,0,0,1,3.277,1.674,3.626,3.626,0,0,1,.936,2.539,3.835,3.835,0,0,1-1.206,2.863A6.2,6.2,0,0,1,38.2,49.072Z"
          transform="translate(-1.65 -2.838)" fill="#47c34c"/>
</svg>
