<svg xmlns="http://www.w3.org/2000/svg" width="15.667" height="16" viewBox="0 0 15.667 16">
    <g id="google_icon" data-name="google icon" transform="translate(-285.2 -284.4)">
        <path id="Blue_500"
              d="M378.517,355.672a9.44,9.44,0,0,0-.149-1.682H370.85v3.082h4.329a3.708,3.708,0,0,1-1.607,2.483v2h2.577A7.834,7.834,0,0,0,378.517,355.672Z"
              transform="translate(-77.649 -63.09)" fill="#4285f4"/>
        <path id="Green_500_1_"
              d="M304.183,388.966a4.849,4.849,0,0,1-7.215-2.536H294.31v2.062a8,8,0,0,0,7.151,4.407,7.633,7.633,0,0,0,5.3-1.934Z"
              transform="translate(-8.259 -92.499)" fill="#34a853"/>
        <path id="Yellow_500_1_"
              d="M288.459,335.173a4.825,4.825,0,0,1,.25-1.531V331.58h-2.658a8.013,8.013,0,0,0,0,7.187l2.658-2.062A4.825,4.825,0,0,1,288.459,335.173Z"
              transform="translate(0 -42.773)" fill="#fabb05"/>
        <path id="Red_500"
              d="M301.461,287.566a4.348,4.348,0,0,1,3.07,1.2l2.284-2.282a7.688,7.688,0,0,0-5.354-2.085,8,8,0,0,0-7.151,4.407l2.658,2.062A4.787,4.787,0,0,1,301.461,287.566Z"
              transform="translate(-8.259 0)" fill="#e94235"/>
    </g>
</svg>
