<svg id="google_pay" data-name="google pay" xmlns="http://www.w3.org/2000/svg" width="40.78" height="16"
     viewBox="0 0 40.78 16">
    <g id="Pay_Typeface_3_" transform="translate(17.536 0.85)">
        <path id="Letter_p_3_"
              d="M511.6,302.232v4.717h-1.5V295.3h3.969a3.58,3.58,0,0,1,2.565,1.006,3.359,3.359,0,0,1,0,4.928,3.573,3.573,0,0,1-2.565.99H511.6Zm0-5.5V300.8h2.5a2,2,0,0,0,1.481-.6,1.963,1.963,0,0,0,.6-1.427,2.078,2.078,0,0,0-2.082-2.027h-2.5Z"
              transform="translate(-510.1 -295.3)" fill="#3c4043"/>
        <path id="Letter_a_3_"
              d="M616.778,339.1a3.7,3.7,0,0,1,2.62.889,3.154,3.154,0,0,1,.959,2.433v4.912H618.93v-1.107h-.062a2.848,2.848,0,0,1-2.472,1.365,3.209,3.209,0,0,1-2.207-.78,2.49,2.49,0,0,1-.889-1.949,2.354,2.354,0,0,1,.936-1.965,3.925,3.925,0,0,1,2.5-.733,4.361,4.361,0,0,1,2.191.491v-.343a1.7,1.7,0,0,0-.616-1.326,2.113,2.113,0,0,0-1.45-.546,2.275,2.275,0,0,0-1.981,1.06l-1.318-.827A3.657,3.657,0,0,1,616.778,339.1Zm-1.934,5.786a1.18,1.18,0,0,0,.5.975,1.833,1.833,0,0,0,1.162.39,2.374,2.374,0,0,0,1.684-.7,2.2,2.2,0,0,0,.741-1.645,3.084,3.084,0,0,0-1.949-.554,2.558,2.558,0,0,0-1.52.437A1.332,1.332,0,0,0,614.844,344.886Z"
              transform="translate(-605.253 -335.685)" fill="#3c4043"/>
        <path id="Letter_y_3_"
              d="M713.969,342.4l-4.99,11.478h-1.544l1.856-4.016L706,342.4h1.63l2.37,5.723h.031l2.308-5.723Z"
              transform="translate(-690.725 -338.727)" fill="#3c4043"/>
    </g>
    <g id="G_Mark_1_">
        <path id="Blue_500"
              d="M377.25,355.394a7.88,7.88,0,0,0-.125-1.4H370.85v2.573h3.614a3.1,3.1,0,0,1-1.341,2.073v1.669h2.151A6.539,6.539,0,0,0,377.25,355.394Z"
              transform="translate(-364.172 -348.564)" fill="#4285f4"/>
        <path id="Green_500_1_"
              d="M302.552,388.547a4.048,4.048,0,0,1-6.023-2.117H294.31v1.722a6.68,6.68,0,0,0,5.97,3.679,6.371,6.371,0,0,0,4.423-1.615Z"
              transform="translate(-293.6 -378.474)" fill="#34a853"/>
        <path id="Yellow_500_1_"
              d="M287.92,334.58a4.027,4.027,0,0,1,.209-1.278V331.58H285.91a6.689,6.689,0,0,0,0,6l2.219-1.722A4.027,4.027,0,0,1,287.92,334.58Z"
              transform="translate(-285.2 -327.901)" fill="#fabb05"/>
        <path id="Red_500"
              d="M300.28,287.043a3.63,3.63,0,0,1,2.563,1l1.906-1.9a6.417,6.417,0,0,0-4.469-1.74,6.681,6.681,0,0,0-5.97,3.679l2.219,1.722A4,4,0,0,1,300.28,287.043Z"
              transform="translate(-293.6 -284.4)" fill="#e94235"/>
    </g>
</svg>
