<svg id="google_pay" data-name="google pay" xmlns="http://www.w3.org/2000/svg" width="45.88" height="18"
     viewBox="0 0 50.975 20">
    <g id="Pay_Typeface_3_" transform="translate(21.92 1.062)">
        <path id="Letter_p_3_"
              d="M511.971,303.965v5.9H510.1V295.3h4.961a4.474,4.474,0,0,1,3.207,1.257,4.2,4.2,0,0,1,0,6.16,4.467,4.467,0,0,1-3.207,1.238h-3.09Zm0-6.871v5.078H515.1a2.5,2.5,0,0,0,1.852-.751,2.454,2.454,0,0,0,.751-1.784,2.6,2.6,0,0,0-2.6-2.534h-3.129Z"
              transform="translate(-510.1 -295.3)" fill="#fff"/>
        <path id="Letter_a_3_"
              d="M617.647,339.1a4.63,4.63,0,0,1,3.275,1.111,3.943,3.943,0,0,1,1.2,3.041v6.14h-1.784v-1.384h-.078a3.56,3.56,0,0,1-3.09,1.706,4.011,4.011,0,0,1-2.758-.975A3.112,3.112,0,0,1,613.3,346.3a2.943,2.943,0,0,1,1.17-2.456,4.907,4.907,0,0,1,3.119-.916,5.451,5.451,0,0,1,2.739.614v-.429a2.124,2.124,0,0,0-.77-1.657,2.642,2.642,0,0,0-1.813-.682,2.843,2.843,0,0,0-2.476,1.326l-1.647-1.033A4.571,4.571,0,0,1,617.647,339.1Zm-2.417,7.232a1.476,1.476,0,0,0,.624,1.218,2.291,2.291,0,0,0,1.452.487,2.968,2.968,0,0,0,2.105-.877,2.753,2.753,0,0,0,.926-2.057,3.855,3.855,0,0,0-2.437-.692,3.2,3.2,0,0,0-1.9.546A1.664,1.664,0,0,0,615.23,346.332Z"
              transform="translate(-603.241 -334.831)" fill="#fff"/>
        <path id="Letter_y_3_"
              d="M715.961,342.4l-6.238,14.347h-1.93l2.32-5.02L706,342.4h2.037L711,349.554h.039l2.885-7.154Z"
              transform="translate(-686.906 -337.809)" fill="#fff"/>
    </g>
    <g id="G_Mark_1_">
        <path id="Blue_500"
              d="M378.85,355.745a9.849,9.849,0,0,0-.156-1.755H370.85v3.216h4.518a3.87,3.87,0,0,1-1.676,2.591v2.087h2.689A8.174,8.174,0,0,0,378.85,355.745Z"
              transform="translate(-362.502 -347.207)" fill="#4285f4"/>
        <path id="Green_500_1_"
              d="M304.612,389.076a5.059,5.059,0,0,1-7.528-2.646H294.31v2.152a8.35,8.35,0,0,0,7.462,4.6,7.964,7.964,0,0,0,5.529-2.018Z"
              transform="translate(-293.422 -376.486)" fill="#34a853"/>
        <path id="Yellow_500_1_"
              d="M288.6,335.329a5.034,5.034,0,0,1,.261-1.6V331.58h-2.774a8.361,8.361,0,0,0,0,7.5l2.774-2.152A5.034,5.034,0,0,1,288.6,335.329Z"
              transform="translate(-285.2 -326.982)" fill="#fabb05"/>
        <path id="Red_500"
              d="M301.772,287.7a4.537,4.537,0,0,1,3.2,1.252l2.383-2.381a8.021,8.021,0,0,0-5.587-2.175,8.351,8.351,0,0,0-7.462,4.6l2.774,2.152A5,5,0,0,1,301.772,287.7Z"
              transform="translate(-293.422 -284.4)" fill="#e94235"/>
    </g>
</svg>
