<svg xmlns="http://www.w3.org/2000/svg" width="70" height="70" viewBox="0 0 70 70">
    <path id="success_icon" data-name="success icon"
          d="M-1819-1549a35.264,35.264,0,0,1-7.054-.711,34.835,34.835,0,0,1-6.57-2.039,35.005,35.005,0,0,1-5.945-3.227,35.256,35.256,0,0,1-5.18-4.274,35.241,35.241,0,0,1-4.274-5.18,35,35,0,0,1-3.227-5.945,34.823,34.823,0,0,1-2.039-6.57A35.262,35.262,0,0,1-1854-1584a35.263,35.263,0,0,1,.711-7.054,34.825,34.825,0,0,1,2.039-6.57,35.006,35.006,0,0,1,3.227-5.945,35.247,35.247,0,0,1,4.274-5.18,35.24,35.24,0,0,1,5.18-4.274,35,35,0,0,1,5.945-3.227,34.843,34.843,0,0,1,6.57-2.039A35.262,35.262,0,0,1-1819-1619a35.264,35.264,0,0,1,7.054.711,34.851,34.851,0,0,1,6.57,2.039,35.007,35.007,0,0,1,5.945,3.227,35.24,35.24,0,0,1,5.18,4.274,35.255,35.255,0,0,1,4.274,5.18,35.015,35.015,0,0,1,3.227,5.945,34.849,34.849,0,0,1,2.039,6.57A35.264,35.264,0,0,1-1784-1584a35.263,35.263,0,0,1-.711,7.054,34.849,34.849,0,0,1-2.039,6.57,35.005,35.005,0,0,1-3.227,5.945,35.248,35.248,0,0,1-4.274,5.18,35.256,35.256,0,0,1-5.18,4.274,35.006,35.006,0,0,1-5.945,3.227,34.839,34.839,0,0,1-6.57,2.039A35.266,35.266,0,0,1-1819-1549Zm-15.674-35.548h0l-2.966,2.965,11.861,11.861,25.417-25.417-2.965-2.965-22.452,22.452-8.9-8.9Z"
          transform="translate(1854 1619)" fill="#47c34c"/>
</svg>
