<svg xmlns="http://www.w3.org/2000/svg" width="30" height="29.556" viewBox="0 0 30 29.556">
  <path id="Settings_Icon" data-name="Settings Icon" d="M16.643,27.569a10.429,10.429,0,0,0,4.174-.831,10.555,10.555,0,0,0,5.633-5.731,11.345,11.345,0,0,0,0-8.383,10.6,10.6,0,0,0-5.633-5.738,10.429,10.429,0,0,0-4.174-.831A10.387,10.387,0,0,0,9.1,9.2,10.684,10.684,0,0,0,6.85,12.625a11.345,11.345,0,0,0,0,8.383,10.53,10.53,0,0,0,5.619,5.731A10.429,10.429,0,0,0,16.643,27.569Zm-.056-7.12q-.168,0-.384-.021a2.921,2.921,0,0,1-.51-.1l-4.411,7.245-1.717-.977,4.5-7.329a4.118,4.118,0,0,1-.8-1.18,3.137,3.137,0,0,1-.251-1.235,3.213,3.213,0,0,1,.258-1.256,4.087,4.087,0,0,1,.789-1.187L9.705,6.992l1.731-.921,4.258,7.3q.321-.07.53-.1a2.8,2.8,0,0,1,.363-.028,3.374,3.374,0,0,1,2.059.677,4.156,4.156,0,0,1,1.389,1.933h8.5l.014,1.926H20.036a4.106,4.106,0,0,1-1.375,1.982A3.372,3.372,0,0,1,16.588,20.45Zm-1.577-3.6a1.522,1.522,0,0,0,.489,1.131,1.605,1.605,0,0,0,2.736-1.131,1.492,1.492,0,0,0-.475-1.124,1.636,1.636,0,0,0-2.262,0A1.472,1.472,0,0,0,15.01,16.848Zm1.633,12.927q-.251,0-.5-.014l-.51-.028-.74,1.41a.747.747,0,0,1-.342.356.9.9,0,0,1-.51.091.818.818,0,0,1-.454-.244.857.857,0,0,1-.216-.468l-.223-1.591a9.017,9.017,0,0,1-.949-.3q-.461-.175-.921-.37l-1.159,1.061a.8.8,0,0,1-.461.223.949.949,0,0,1-.517-.1.787.787,0,0,1-.342-.391,1.006,1.006,0,0,1-.049-.517l.335-1.564q-.391-.265-.782-.586t-.74-.67l-1.452.614a.783.783,0,0,1-.963-.251.793.793,0,0,1-.2-.461.82.82,0,0,1,.133-.5l.838-1.354q-.265-.391-.51-.824T4.945,22.4l-1.591.084a.793.793,0,0,1-.489-.133.744.744,0,0,1-.307-.412.868.868,0,0,1-.014-.51.774.774,0,0,1,.293-.412l1.242-.991q-.126-.475-.209-.97t-.126-.984l-1.522-.489a.795.795,0,0,1-.572-.782.767.767,0,0,1,.154-.489.924.924,0,0,1,.419-.293l1.522-.475q.042-.517.126-1t.209-.956L2.837,12.6a.813.813,0,0,1-.3-.412.771.771,0,0,1,.021-.51.713.713,0,0,1,.307-.4.819.819,0,0,1,.489-.126l1.591.056q.223-.461.468-.886t.523-.845L5.085,8.123a.713.713,0,0,1-.133-.475.731.731,0,0,1,.2-.447.761.761,0,0,1,.963-.251l1.452.586a9.157,9.157,0,0,1,.74-.663q.391-.314.782-.607L8.756,4.731a.785.785,0,0,1,.377-.893.772.772,0,0,1,.991.126L11.283,5q.461-.209.921-.377t.949-.307l.223-1.564a.884.884,0,0,1,.216-.461.723.723,0,0,1,.44-.237.888.888,0,0,1,.523.07.713.713,0,0,1,.342.349l.74,1.424q.279-.028.517-.035t.489-.007q.251,0,.5.007t.5.035l.754-1.438a.724.724,0,0,1,.342-.335.852.852,0,0,1,.51-.07.733.733,0,0,1,.454.237.884.884,0,0,1,.216.461l.223,1.564q.489.14.949.307T22,5l1.173-1.033a.746.746,0,0,1,.454-.244.762.762,0,0,1,.51.119.706.706,0,0,1,.335.363,1,1,0,0,1,.056.53L24.2,6.266q.4.293.789.607t.733.663l1.466-.586a.746.746,0,0,1,.949.251.731.731,0,0,1,.2.447.713.713,0,0,1-.133.475l-.852,1.354q.279.419.524.845t.454.886l1.605-.056a.819.819,0,0,1,.489.126.713.713,0,0,1,.307.4.771.771,0,0,1,.021.51.813.813,0,0,1-.3.412l-1.242.991q.126.475.216.956a9.563,9.563,0,0,1,.133,1l1.508.475a.972.972,0,0,1,.426.293.813.813,0,0,1,0,.97.948.948,0,0,1-.426.3l-1.508.475q-.042.5-.133,1t-.216.97l1.242.991a.811.811,0,0,1,.3.419.861.861,0,0,1-.328.914.793.793,0,0,1-.489.133L28.328,22.4q-.209.461-.454.893a9.178,9.178,0,0,1-.524.824l.852,1.354a.82.82,0,0,1,.133.5.793.793,0,0,1-.2.461.767.767,0,0,1-.949.251l-1.466-.614q-.349.349-.733.67a8.433,8.433,0,0,1-.789.586l.335,1.564a1.006,1.006,0,0,1-.049.517.724.724,0,0,1-.342.377.844.844,0,0,1-.51.112.74.74,0,0,1-.454-.223L22,28.616q-.461.2-.921.37a9.017,9.017,0,0,1-.949.3l-.223,1.591a.857.857,0,0,1-.216.468.738.738,0,0,1-.44.23.853.853,0,0,1-.524-.077.747.747,0,0,1-.342-.356l-.754-1.41-.5.028Q16.895,29.775,16.643,29.775Z" transform="translate(-1.65 -2.039)" fill="#a3aaae"/>
</svg>
