<svg xmlns="http://www.w3.org/2000/svg" width="170" height="170" viewBox="0 0 170 170">
  <defs>
    <linearGradient id="linear-gradient" x1="1" y1="0.5" x2="0" y2="0.5" gradientUnits="objectBoundingBox">
      <stop offset="0" stop-color="#5c7ff4"/>
      <stop offset="1" stop-color="#5cd1f4"/>
    </linearGradient>
  </defs>
  <path id="Subtraction_7" data-name="Subtraction 7"
        d="M85,194a84.745,84.745,0,0,1-16.9-1.673,80.116,80.116,0,0,1-15.893-5.017,88.944,88.944,0,0,1-14.473-7.947,87.652,87.652,0,0,1-23.1-23.087,88.97,88.97,0,0,1-7.947-14.44,79.594,79.594,0,0,1-5.017-15.883,87.061,87.061,0,0,1-.011-33.908A79.948,79.948,0,0,1,6.647,76.163,86.7,86.7,0,0,1,25.054,49.055,86.958,86.958,0,0,1,37.724,38.571a88.062,88.062,0,0,1,14.484-7.925,80.622,80.622,0,0,1,15.872-4.985A84.715,84.715,0,0,1,84.912,24H85V39.654h-.087A71.025,71.025,0,0,0,71.019,41a65.756,65.756,0,0,0-13,4.034,70.9,70.9,0,0,0-11.784,6.416,69.531,69.531,0,0,0-18.7,18.791,71.106,71.106,0,0,0-6.373,11.828,66.662,66.662,0,0,0-4,13.029,73.48,73.48,0,0,0,0,27.874,66.593,66.593,0,0,0,4,13.052,70.679,70.679,0,0,0,6.373,11.816,69.076,69.076,0,0,0,18.714,18.725,71.528,71.528,0,0,0,11.817,6.406A66.3,66.3,0,0,0,71.1,177,71.2,71.2,0,0,0,85,178.347,72.331,72.331,0,0,0,99.035,177a66.107,66.107,0,0,0,13.074-4.033,71.088,71.088,0,0,0,11.805-6.406,68.658,68.658,0,0,0,10.231-8.46,70.056,70.056,0,0,0,8.438-10.265,72.6,72.6,0,0,0,6.428-11.816,64.76,64.76,0,0,0,4.045-13.052,70.13,70.13,0,0,0,1.29-13.97H170a85.668,85.668,0,0,1-1.661,16.954,80.028,80.028,0,0,1-4.985,15.883,88.263,88.263,0,0,1-7.914,14.44,87.4,87.4,0,0,1-23.087,23.087,88.973,88.973,0,0,1-14.472,7.947,80.043,80.043,0,0,1-15.916,5.017A85.3,85.3,0,0,1,85,194Z"
        transform="translate(0 -24)" fill="url(#linear-gradient)"/>
</svg>
