<svg xmlns="http://www.w3.org/2000/svg" width="18" height="26.32" viewBox="0 0 18 26.32">
  <path id="Microphone_Icon" data-name="Microphone Icon" d="M2.783,14.612a9.071,9.071,0,0,0,1.008,4.34A7.991,7.991,0,0,0,6.6,21.981a9.1,9.1,0,0,0,4.16,1.348v2.632H6.275a1.036,1.036,0,0,0-.751.308,1,1,0,0,0-.315.745.984.984,0,0,0,.315.738,1.047,1.047,0,0,0,.751.3H17.291a1.019,1.019,0,0,0,.751-.3,1,1,0,0,0,.3-.738,1.025,1.025,0,0,0-.3-.745,1.009,1.009,0,0,0-.751-.308H12.823V23.329a9.079,9.079,0,0,0,4.147-1.348,7.991,7.991,0,0,0,2.805-3.03,9.071,9.071,0,0,0,1.008-4.34V12.185a1.03,1.03,0,0,0-1.04-1.04,1.025,1.025,0,0,0-.745.3.994.994,0,0,0-.308.738v2.35a7.274,7.274,0,0,1-.867,3.614,6.119,6.119,0,0,1-2.42,2.407,7.354,7.354,0,0,1-3.621.86,7.354,7.354,0,0,1-3.621-.86,6.119,6.119,0,0,1-2.42-2.407,7.274,7.274,0,0,1-.867-3.614v-2.35a.994.994,0,0,0-.308-.738,1.025,1.025,0,0,0-.745-.3,1.03,1.03,0,0,0-1.04,1.04Zm9,4.237a4.13,4.13,0,0,0,2.163-.565A3.925,3.925,0,0,0,15.423,16.7a4.951,4.951,0,0,0,.533-2.337V6.228a4.941,4.941,0,0,0-.533-2.343,3.981,3.981,0,0,0-1.476-1.579,4.094,4.094,0,0,0-2.163-.571A4.13,4.13,0,0,0,9.62,2.3,3.925,3.925,0,0,0,8.143,3.878a4.951,4.951,0,0,0-.533,2.337v8.153A4.951,4.951,0,0,0,8.143,16.7,3.925,3.925,0,0,0,9.62,18.284,4.13,4.13,0,0,0,11.783,18.848Z" transform="translate(-2.783 -1.734)" fill="#a3aaae"/>
</svg>
