<svg xmlns="http://www.w3.org/2000/svg" width="30" height="30" viewBox="0 0 30 30">
  <path id="askldnadfnds"
        d="M16.65,32.838a14.4,14.4,0,0,0,5.8-1.181,15.37,15.37,0,0,0,8.025-8.025,14.424,14.424,0,0,0,1.173-5.795,14.424,14.424,0,0,0-1.173-5.795,15.377,15.377,0,0,0-8.04-8.032,14.479,14.479,0,0,0-5.8-1.173,14.4,14.4,0,0,0-5.772,1.173,15.377,15.377,0,0,0-8.04,8.032A14.424,14.424,0,0,0,1.65,17.838a14.343,14.343,0,0,0,1.181,5.795,15.421,15.421,0,0,0,8.032,8.025A14.359,14.359,0,0,0,16.65,32.838ZM10.015,17.684a1.077,1.077,0,0,1-.8-.332,1.1,1.1,0,0,1-.324-.795,1.064,1.064,0,0,1,.324-.795,1.1,1.1,0,0,1,.8-.316h.664l2.191.154L8.981,11.9a1.253,1.253,0,0,1-.355-.856,1.093,1.093,0,0,1,.355-.856,1.167,1.167,0,0,1,.856-.355,1.143,1.143,0,0,1,.856.37l3.735,3.9-.17-2.238v-.679a1.109,1.109,0,0,1,.324-.818,1.072,1.072,0,0,1,.787-.324,1.09,1.09,0,0,1,.8.324,1.109,1.109,0,0,1,.324.818v5.139a1.356,1.356,0,0,1-.347,1.034,1.429,1.429,0,0,1-1.011.324ZM17.9,25.6a1.072,1.072,0,0,1-.787-.324,1.09,1.09,0,0,1-.324-.8V19.319a1.356,1.356,0,0,1,.347-1.034,1.405,1.405,0,0,1,1-.324h5.139a1.059,1.059,0,0,1,.787.332,1.1,1.1,0,0,1,.324.795,1.064,1.064,0,0,1-.324.795,1.085,1.085,0,0,1-.787.316h-.694L20.4,20.045l3.873,3.7a1.17,1.17,0,0,1,.378.856,1.118,1.118,0,0,1-.363.856,1.158,1.158,0,0,1-.849.355,1.135,1.135,0,0,1-.849-.37l-3.735-3.9.17,2.253v.679A1.107,1.107,0,0,1,17.9,25.6Z"
        transform="translate(-1.65 -2.838)" fill="#fff"/>
</svg>
