<svg xmlns="http://www.w3.org/2000/svg" width="30" height="30" viewBox="0 0 30 30">
  <path id="Path_78" data-name="Path 78"
        d="M16.65,32.838a14.4,14.4,0,0,0,5.8-1.181,15.37,15.37,0,0,0,8.025-8.025,14.424,14.424,0,0,0,1.173-5.795,14.424,14.424,0,0,0-1.173-5.795,15.377,15.377,0,0,0-8.04-8.032,14.479,14.479,0,0,0-5.8-1.173,14.4,14.4,0,0,0-5.772,1.173,15.377,15.377,0,0,0-8.04,8.032A14.424,14.424,0,0,0,1.65,17.838a14.343,14.343,0,0,0,1.181,5.795,15.421,15.421,0,0,0,8.032,8.025A14.359,14.359,0,0,0,16.65,32.838ZM9.953,17.9a1.1,1.1,0,0,1-.8-.34,1.133,1.133,0,0,1-.34-.833V11.4a1.344,1.344,0,0,1,.363-1.049,1.488,1.488,0,0,1,1.026-.324h5.309a1.128,1.128,0,0,1,.818.332,1.136,1.136,0,0,1,0,1.62,1.128,1.128,0,0,1-.818.332h-.725l-2.222-.154,3.333,3.179a1.121,1.121,0,0,1,.37.864,1.247,1.247,0,0,1-.355.9,1.219,1.219,0,0,1-.9.37,1.147,1.147,0,0,1-.88-.386L10.956,13.7l.154,2.315v.71a1.147,1.147,0,0,1-.332.833A1.108,1.108,0,0,1,9.953,17.9Zm7.809,7.762a1.128,1.128,0,0,1-.818-.332,1.09,1.09,0,0,1-.34-.81,1.159,1.159,0,0,1,1.157-1.157l.725.015,2.222.154-3.333-3.179a1.121,1.121,0,0,1-.37-.864,1.247,1.247,0,0,1,.355-.9,1.219,1.219,0,0,1,.9-.37,1.169,1.169,0,0,1,.88.37l3.179,3.4-.17-2.315v-.725a1.115,1.115,0,0,1,.34-.818,1.133,1.133,0,0,1,.833-.34,1.1,1.1,0,0,1,.8.34,1.115,1.115,0,0,1,.34.818v5.34A1.348,1.348,0,0,1,24.1,25.33a1.466,1.466,0,0,1-1.026.332Z"
        transform="translate(-1.65 -2.838)" fill="#fff"/>
</svg>
