<svg xmlns="http://www.w3.org/2000/svg" width="30" height="30" viewBox="0 0 30 30">
    <path id="Pjsfbldsjkfbjsd"
          d="M16.65,32.848a14.4,14.4,0,0,0,5.8-1.181,15.37,15.37,0,0,0,8.025-8.025,14.424,14.424,0,0,0,1.173-5.795,14.424,14.424,0,0,0-1.173-5.795,15.377,15.377,0,0,0-8.04-8.032,14.479,14.479,0,0,0-5.8-1.173A14.4,14.4,0,0,0,10.863,4.02a15.377,15.377,0,0,0-8.04,8.032A14.424,14.424,0,0,0,1.65,17.848a14.343,14.343,0,0,0,1.181,5.795,15.421,15.421,0,0,0,8.032,8.025A14.359,14.359,0,0,0,16.65,32.848ZM6.419,19.283v-.139a4.078,4.078,0,0,1,.88-2.608,6.8,6.8,0,0,1,2.353-1.844,13.131,13.131,0,0,1,3.287-1.1,19.173,19.173,0,0,1,7.423,0,13.131,13.131,0,0,1,3.287,1.1A6.8,6.8,0,0,1,26,16.536a4.078,4.078,0,0,1,.88,2.608v.139a2.649,2.649,0,0,1-.193,1.042,1.6,1.6,0,0,1-.579.718,1.663,1.663,0,0,1-.957.262q-.633,0-1.451-.077a10.469,10.469,0,0,1-2.083-.478,2.185,2.185,0,0,1-1.073-.625,1.915,1.915,0,0,1-.363-1.227l-.015-.9a.374.374,0,0,0-.293-.355,9.246,9.246,0,0,0-1.2-.231,14.24,14.24,0,0,0-2.029-.123,14.24,14.24,0,0,0-2.029.123,9.245,9.245,0,0,0-1.2.231.374.374,0,0,0-.293.355l-.015.9a1.915,1.915,0,0,1-.363,1.227,2.185,2.185,0,0,1-1.073.625,10.469,10.469,0,0,1-2.083.478q-.818.077-1.451.077a1.663,1.663,0,0,1-.957-.262,1.6,1.6,0,0,1-.579-.718A2.649,2.649,0,0,1,6.419,19.283Z"
          transform="translate(-1.65 -2.848)" fill="#fff"/>
</svg>
