<svg xmlns="http://www.w3.org/2000/svg" width="22" height="22" viewBox="0 0 22 22">
    <path id="Path_68" data-name="Path 68"
          d="M12.65,24.848a10.558,10.558,0,0,0,4.255-.866A11.271,11.271,0,0,0,22.79,18.1a10.577,10.577,0,0,0,.86-4.249A10.577,10.577,0,0,0,22.79,9.6a11.277,11.277,0,0,0-5.9-5.89,10.9,10.9,0,0,0-8.488,0A11.277,11.277,0,0,0,2.51,9.6a10.577,10.577,0,0,0-.86,4.249A10.518,10.518,0,0,0,2.516,18.1a11.308,11.308,0,0,0,5.89,5.885A10.53,10.53,0,0,0,12.65,24.848Zm-3.984-6.79V13.7q0-1.132.951-1.222V11.211a3.568,3.568,0,0,1,.837-2.467,2.8,2.8,0,0,1,2.2-.939,2.8,2.8,0,0,1,2.2.939,3.568,3.568,0,0,1,.837,2.467v1.267q.951.091.951,1.222v4.357q0,1.222-1.143,1.222H9.81Q8.667,19.28,8.667,18.058Zm2.2-5.6h3.576V11.086a2.239,2.239,0,0,0-.492-1.505,1.75,1.75,0,0,0-2.6,0,2.256,2.256,0,0,0-.487,1.505Z"
          transform="translate(-1.65 -2.848)" fill="#4c4c4c"/>
</svg>
