<svg xmlns="http://www.w3.org/2000/svg" viewBox="0 0 500 500">
  <path id="Subtraction_25"
        d="M4527,2662H4227a100.735,100.735,0,0,1-20.153-2.032,99.443,99.443,0,0,1-35.758-15.047,100.288,100.288,0,0,1-36.23-44,99.516,99.516,0,0,1-5.827-18.771A100.733,100.733,0,0,1,4127,2562V2262a100.733,100.733,0,0,1,2.032-20.153,99.455,99.455,0,0,1,15.046-35.757,100.294,100.294,0,0,1,44-36.231,99.467,99.467,0,0,1,18.771-5.827A100.731,100.731,0,0,1,4227,2162h300a100.73,100.73,0,0,1,20.153,2.032,99.449,99.449,0,0,1,35.758,15.047,100.3,100.3,0,0,1,36.231,44,99.534,99.534,0,0,1,5.827,18.771A100.736,100.736,0,0,1,4627,2262v300a100.739,100.739,0,0,1-2.032,20.154,99.439,99.439,0,0,1-15.047,35.758,100.295,100.295,0,0,1-44,36.23,99.5,99.5,0,0,1-18.771,5.827A100.733,100.733,0,0,1,4527,2662Zm-169.267-281.149v101.9h23.54V2442.2a27.8,27.8,0,0,0,9.366,6.56,29.388,29.388,0,0,0,11.446,2.186,31.638,31.638,0,0,0,23.8-10.469,34.847,34.847,0,0,0,7.023-11.395,37.6,37.6,0,0,0,2.6-14.048,38.634,38.634,0,0,0-2.6-14.178,34.6,34.6,0,0,0-7.023-11.529,32.936,32.936,0,0,0-10.794-7.686,30.588,30.588,0,0,0-13.267-2.915,27.142,27.142,0,0,0-11.642,2.418,24.566,24.566,0,0,0-8.91,7.255v-7.553Zm-178.2,0v101.9h23.541V2442.2a27.788,27.788,0,0,0,9.366,6.56,29.383,29.383,0,0,0,11.445,2.186,31.646,31.646,0,0,0,23.8-10.469,34.9,34.9,0,0,0,7.023-11.395,37.615,37.615,0,0,0,2.6-14.048,38.646,38.646,0,0,0-2.6-14.178,34.621,34.621,0,0,0-7.023-11.529,32.938,32.938,0,0,0-10.8-7.686,30.576,30.576,0,0,0-13.267-2.915,27.138,27.138,0,0,0-11.641,2.418,24.56,24.56,0,0,0-8.91,7.255v-7.553Zm91.195,0v42.934a30.6,30.6,0,0,0,2.211,12.059,21.535,21.535,0,0,0,6.633,8.612,30.831,30.831,0,0,0,11.153,5.168,70.556,70.556,0,0,0,30.987,0,30.185,30.185,0,0,0,11.055-5.168,21.573,21.573,0,0,0,6.73-8.612,30.206,30.206,0,0,0,2.244-12.059v-42.934H4318.2v38.3c0,4.177-1.006,7.354-2.991,9.442s-5,3.147-8.975,3.147-6.989-1.059-8.974-3.147-2.991-5.265-2.991-9.442v-38.3Zm258.019,47.837h0l17.039,20.141H4577l-33.425-36.837,27.7-31.141h-30.694l-11.706,14.046-11.443-14.046h-30.7l27.053,31.141-33.3,36.837h31.086l17.167-20.141Zm-79.818-47.837v67.978h23.543v-67.978Zm11.708-39.621a13.152,13.152,0,0,0-4.778.886c-.145.053-.3.112-.449.174a14.63,14.63,0,0,0-4.414,2.914,13.6,13.6,0,0,0-3.035,4.371,12.2,12.2,0,0,0-1.1,5.165,13.116,13.116,0,0,0,1.1,5.3,14.081,14.081,0,0,0,3.035,4.238,14.628,14.628,0,0,0,4.414,2.914l.014.006.012,0a13.12,13.12,0,0,0,5.2,1.06c.211,0,.423,0,.628-.014a13.527,13.527,0,0,0,5.041-1.057,14.067,14.067,0,0,0,7.588-7.152,13.144,13.144,0,0,0,1.1-5.3,12.227,12.227,0,0,0-1.1-5.165,13.616,13.616,0,0,0-3.037-4.371,14.183,14.183,0,0,0-4.551-2.914,13.582,13.582,0,0,0-5.38-1.06h-.289Zm-269.566,0a13.95,13.95,0,0,0-9.932,3.974,13.566,13.566,0,0,0-3.034,4.371,12.2,12.2,0,0,0-1.1,5.165,13.105,13.105,0,0,0,1.1,5.3,14.056,14.056,0,0,0,3.034,4.238,13.952,13.952,0,0,0,9.932,3.974,13.629,13.629,0,0,0,5.38-1.06,14.208,14.208,0,0,0,4.551-2.914,14.062,14.062,0,0,0,3.036-4.238,13.129,13.129,0,0,0,1.1-5.3,12.215,12.215,0,0,0-1.1-5.165A13.585,13.585,0,0,0,4201,2345.2a14.208,14.208,0,0,0-4.551-2.914A13.6,13.6,0,0,0,4191.07,2341.23Zm204.771,89.048a15.457,15.457,0,0,1-5.983-1.192,18.837,18.837,0,0,1-4.812-3.314,15.631,15.631,0,0,1-3.252-4.9,15.774,15.774,0,0,1,0-11.925,18.627,18.627,0,0,1,3.252-5.035,15.287,15.287,0,0,1,4.813-3.313,14.53,14.53,0,0,1,5.853-1.193,13.589,13.589,0,0,1,5.984,1.325,14.923,14.923,0,0,1,4.942,3.313,13.719,13.719,0,0,1,3.121,5.035,15.3,15.3,0,0,1,1.169,5.963,13.668,13.668,0,0,1-1.3,5.83,15.6,15.6,0,0,1-3.251,4.9,13.862,13.862,0,0,1-4.682,3.314A14.526,14.526,0,0,1,4395.841,2430.279Zm-178.2,0a15.458,15.458,0,0,1-5.984-1.192,18.821,18.821,0,0,1-4.812-3.314,15.592,15.592,0,0,1-3.252-4.9,15.786,15.786,0,0,1,0-11.925,18.572,18.572,0,0,1,3.252-5.035,15.274,15.274,0,0,1,4.812-3.313,14.53,14.53,0,0,1,5.853-1.193,13.587,13.587,0,0,1,5.983,1.325,14.893,14.893,0,0,1,4.942,3.313,13.7,13.7,0,0,1,3.123,5.035,15.3,15.3,0,0,1,1.17,5.963,13.653,13.653,0,0,1-1.3,5.83,15.574,15.574,0,0,1-3.251,4.9,13.844,13.844,0,0,1-4.682,3.314A14.521,14.521,0,0,1,4217.642,2430.279Z"
        transform="translate(-4127 -2162)" fill="#00aff0"/>
</svg>
