<svg xmlns="http://www.w3.org/2000/svg" width="17.334" height="14.18" viewBox="0 0 17.334 14.18">
    <path id="Path_80" data-name="Path 80"
          d="M19.688,12.32a.933.933,0,0,0-.3-.693L13.291,5.543a1.094,1.094,0,0,0-.337-.239A.9.9,0,0,0,12.6,5.23a.906.906,0,0,0-.654.254.856.856,0,0,0-.264.645.977.977,0,0,0,.068.366.877.877,0,0,0,.2.3L14.023,8.9l3.525,3.223.273-.547-3.105-.186H3.291a.922.922,0,0,0-.674.259.9.9,0,0,0-.264.669A.909.909,0,0,0,2.617,13a.922.922,0,0,0,.674.259H14.717l3.105-.186-.273-.537-3.525,3.213-2.08,2.109a.877.877,0,0,0-.2.3.977.977,0,0,0-.068.366.845.845,0,0,0,.264.635.906.906,0,0,0,.654.254.931.931,0,0,0,.664-.283l6.123-6.113A.913.913,0,0,0,19.688,12.32Z"
          transform="translate(-2.354 -5.23)" fill="#fff"/>
</svg>
