<svg xmlns="http://www.w3.org/2000/svg" viewBox="0 0 259.032 93.586">
  <path id="pupik_icon" data-name="pupik icon"
        d="M72.284-102.414v-66.262H87.847v4.964a14.929,14.929,0,0,1,4.493-4.107,18.236,18.236,0,0,1,9.015-2.245,21.3,21.3,0,0,1,14.683,5.672,22.694,22.694,0,0,1,7.606,17.872,22.779,22.779,0,0,1-7.811,18.079,21.129,21.129,0,0,1-14.184,5.377,19.848,19.848,0,0,1-8.809-2.009,17.622,17.622,0,0,1-4.874-3.752v26.41Zm32.8-37.547a9.813,9.813,0,0,0,2.437-6.588l-.059.03a9.789,9.789,0,0,0-2.349-6.529,10.023,10.023,0,0,0-7.207-3.523,10.014,10.014,0,0,0-7.476,2.9,10.235,10.235,0,0,0,0,14.3,9.57,9.57,0,0,0,7.077,2.955A9.346,9.346,0,0,0,105.085-139.961ZM-45.06-102.414v-66.262H-29.5v4.964A14.918,14.918,0,0,1-25-167.818a18.237,18.237,0,0,1,9.192-2.245A21.308,21.308,0,0,1-1.13-164.391a22.787,22.787,0,0,1,7.341,17.872A22.782,22.782,0,0,1-1.6-128.44a21.134,21.134,0,0,1-14.213,5.377,19.849,19.849,0,0,1-8.81-2.009,17.622,17.622,0,0,1-4.874-3.752v26.41Zm32.713-37.547a9.964,9.964,0,0,0,2.408-6.588l-.029.03a9.785,9.785,0,0,0-2.35-6.529,10.02,10.02,0,0,0-7.207-3.523,10.013,10.013,0,0,0-7.475,2.9,10.234,10.234,0,0,0,0,14.3,9.575,9.575,0,0,0,7.078,2.955A9.347,9.347,0,0,0-12.347-139.961Zm50.714,17.34q-13.655,0-19.646-6.764a16.435,16.435,0,0,1-3.788-11.285V-168.7H30.5v25.051a8.248,8.248,0,0,0,1.967,6.086,9.239,9.239,0,0,0,11.747,0,8.248,8.248,0,0,0,1.967-6.086V-168.7H61.742v28.064h.117a15.913,15.913,0,0,1-11.746,16.366,36.052,36.052,0,0,1-10.833,1.666Q38.823-122.609,38.367-122.621Zm152.906-1.89L174.182-142.5v17.991H158.618V-196h15.564v43.218l16.24-15.893h21.289l-21.965,20.384,23.287,23.781Zm-58.819,0v-44.165h15.563v44.165Zm-.445-57.692a8.907,8.907,0,0,1,1.353-9.045,8.629,8.629,0,0,1,6.815-3.335,8.642,8.642,0,0,1,7.246,3.937,8.4,8.4,0,0,1,1.535,5.014,8.851,8.851,0,0,1-7.073,8.725,8.772,8.772,0,0,1-1.741.176A8.812,8.812,0,0,1,132.008-182.2ZM-46-185.838a8.688,8.688,0,0,1,8.662-8.715,8.689,8.689,0,0,1,8.663,8.715,8.689,8.689,0,0,1-8.663,8.715A8.688,8.688,0,0,1-46-185.838Z"
        transform="translate(46 196)" fill="#fff"/>
</svg>
