<svg xmlns="http://www.w3.org/2000/svg" width="22" height="26.797" viewBox="0 0 22 26.797">
  <path id="refresh_icon" data-name="refresh icon" d="M16.2,8.779,17.088,6.9a10.813,10.813,0,0,0-2.157-.66,11.769,11.769,0,0,0-2.3-.229A10.852,10.852,0,0,0,4.853,9.2a11.064,11.064,0,0,0-2.353,3.5,11.17,11.17,0,0,0,.007,8.562,11.235,11.235,0,0,0,2.359,3.51,10.833,10.833,0,0,0,7.778,3.216,10.8,10.8,0,0,0,4.281-.85A11.076,11.076,0,0,0,22.8,21.269a10.8,10.8,0,0,0,.85-4.281,1.119,1.119,0,0,0-1.163-1.163,1.016,1.016,0,0,0-.784.327,1.187,1.187,0,0,0-.3.837A8.673,8.673,0,0,1,18.846,23.2a8.817,8.817,0,0,1-2.791,1.876,8.62,8.62,0,0,1-3.412.673A8.678,8.678,0,0,1,4.578,20.4a9.1,9.1,0,0,1,0-6.837,8.59,8.59,0,0,1,1.863-2.791A8.786,8.786,0,0,1,9.226,8.9a8.562,8.562,0,0,1,3.405-.68,13.064,13.064,0,0,1,1.961.137A7.086,7.086,0,0,1,16.2,8.779ZM12.252,13.8a1.011,1.011,0,0,0,.784-.314l5.085-5.111a1.172,1.172,0,0,0,.353-.837,1.143,1.143,0,0,0-.353-.837L13.036,1.55a.972.972,0,0,0-.8-.353,1.024,1.024,0,0,0-.765.333,1.118,1.118,0,0,0-.32.8,1.088,1.088,0,0,0,.085.425,1.233,1.233,0,0,0,.229.359L15.925,7.5,11.48,11.916a1.337,1.337,0,0,0-.242.359,1,1,0,0,0-.085.412,1.074,1.074,0,0,0,.32.791A1.059,1.059,0,0,0,12.252,13.8Z" transform="translate(-1.65 -1.197)" fill="#a3aaae"/>
</svg>
