<svg xmlns="http://www.w3.org/2000/svg" viewBox="0 0 200 200.002">
  <path id="Path_17"
        d="M170.747,29.263a100.046,100.046,0,1,0,0,141.479A100.157,100.157,0,0,0,170.747,29.263Zm-10.917,130.57a84.615,84.615,0,1,1,0-119.662A84.711,84.711,0,0,1,159.831,159.833Zm-14.6-20.285a5.656,5.656,0,0,1-10.383,4.49C129.4,131.424,116.5,123.272,102,123.272c-14.837,0-27.809,8.145-33.042,20.751a5.657,5.657,0,1,1-10.449-4.337c7-16.844,24.07-27.726,43.491-27.726C121.016,111.959,137.988,122.787,145.235,139.548ZM62.682,72.924a11.693,11.693,0,1,1,11.694,11.7A11.7,11.7,0,0,1,62.682,72.924Zm53.022,0a11.695,11.695,0,1,1,11.7,11.7A11.7,11.7,0,0,1,115.7,72.924Z"
        transform="translate(0 0)" fill="#00AFF0"/>
</svg>
