<svg xmlns="http://www.w3.org/2000/svg" width="23" height="23" viewBox="0 0 23 23">
  <path id="Path_37" data-name="Path 37" d="M13.15,25.838a11.038,11.038,0,0,0,4.449-.905,11.784,11.784,0,0,0,6.152-6.152,11.058,11.058,0,0,0,.9-4.443,11.058,11.058,0,0,0-.9-4.443,11.789,11.789,0,0,0-6.164-6.158,11.1,11.1,0,0,0-4.449-.9,11.042,11.042,0,0,0-4.425.9A11.789,11.789,0,0,0,2.55,9.9a11.058,11.058,0,0,0-.9,4.443,11,11,0,0,0,.905,4.443,11.822,11.822,0,0,0,6.158,6.152A11.009,11.009,0,0,0,13.15,25.838ZM8.418,20.123a.923.923,0,0,1-.7.065.674.674,0,0,1-.414-.414.923.923,0,0,1,.065-.7l3.147-6.543a1.691,1.691,0,0,1,.828-.828l6.519-3.135a.806.806,0,0,1,.994.071.815.815,0,0,1,.071.982l-3.147,6.531a1.586,1.586,0,0,1-.816.816ZM13.15,15.8a1.454,1.454,0,1,0-1.017-.426A1.4,1.4,0,0,0,13.15,15.8Z" transform="translate(-1.65 -2.838)" fill="#a3aaae"/>
</svg>
