<svg xmlns="http://www.w3.org/2000/svg" width="22" height="22.617" viewBox="0 0 22 22.617">
  <path id="settings_icon" data-name="settings icon" d="M22.811,15.417a8.813,8.813,0,0,0,.079-1.108,8.813,8.813,0,0,0-.079-1.108L25.2,11.334a.571.571,0,0,0,.136-.724L23.071,6.7a.568.568,0,0,0-.69-.249L19.565,7.58a8.262,8.262,0,0,0-1.911-1.108l-.43-3A.551.551,0,0,0,16.67,3H12.147a.551.551,0,0,0-.554.475l-.43,3A8.688,8.688,0,0,0,9.252,7.58L6.436,6.449a.552.552,0,0,0-.69.249L3.484,10.611a.558.558,0,0,0,.136.724L6.006,13.2a8.968,8.968,0,0,0-.079,1.108,8.968,8.968,0,0,0,.079,1.108L3.62,17.283a.571.571,0,0,0-.136.724l2.262,3.913a.568.568,0,0,0,.69.249l2.816-1.131a8.262,8.262,0,0,0,1.911,1.108l.43,3a.551.551,0,0,0,.554.475H16.67a.551.551,0,0,0,.554-.475l.43-3a8.688,8.688,0,0,0,1.911-1.108l2.816,1.131a.552.552,0,0,0,.69-.249l2.262-3.913a.571.571,0,0,0-.136-.724l-2.386-1.866Zm-8.4,2.85a3.958,3.958,0,1,1,3.958-3.958A3.962,3.962,0,0,1,14.409,18.267Z" transform="translate(-3.406 -3)" fill="#a3aaae"/>
</svg>
