<svg xmlns="http://www.w3.org/2000/svg" viewBox="0 0 25 25">
  <g id="deny_icon" data-name="deny icon" transform="translate(902 1580)" fill="#dd7373">
    <path d="M -889.4996948242188 -1555.250244140625 C -892.7719116210938 -1555.250244140625 -895.8482055664062 -1556.5244140625 -898.1619873046875 -1558.838012695312 C -900.4756469726562 -1561.151733398438 -901.7498168945312 -1564.228149414062 -901.7498168945312 -1567.500366210938 C -901.7498168945312 -1570.772583007812 -900.4756469726562 -1573.848999023438 -898.1619873046875 -1576.162719726562 C -895.8482055664062 -1578.476318359375 -892.7719116210938 -1579.75048828125 -889.4996948242188 -1579.75048828125 C -886.2279052734375 -1579.75048828125 -883.1517333984375 -1578.476318359375 -880.8377685546875 -1576.162719726562 C -878.52392578125 -1573.848876953125 -877.2496337890625 -1570.7724609375 -877.2496337890625 -1567.500366210938 C -877.2496337890625 -1564.228271484375 -878.52392578125 -1561.15185546875 -880.8377685546875 -1558.838012695312 C -883.1517333984375 -1556.5244140625 -886.2279052734375 -1555.250244140625 -889.4996948242188 -1555.250244140625 Z M -889.5798950195312 -1565.885009765625 L -886.6893920898438 -1562.99462890625 C -886.462890625 -1562.76806640625 -886.1619262695312 -1562.643188476562 -885.8421020507812 -1562.643188476562 C -885.5216674804688 -1562.643188476562 -885.220458984375 -1562.76806640625 -884.993896484375 -1562.99462890625 C -884.767333984375 -1563.22119140625 -884.642578125 -1563.522216796875 -884.642578125 -1563.84228515625 C -884.642578125 -1564.162353515625 -884.767333984375 -1564.46337890625 -884.9939575195312 -1564.68994140625 L -887.8843994140625 -1567.580444335938 L -884.993896484375 -1570.471801757812 C -884.767333984375 -1570.698364257812 -884.642578125 -1570.999389648438 -884.642578125 -1571.319458007812 C -884.642578125 -1571.639526367188 -884.767333984375 -1571.940673828125 -884.9939575195312 -1572.167236328125 C -885.2205810546875 -1572.393798828125 -885.521728515625 -1572.5185546875 -885.8419799804688 -1572.5185546875 C -886.162353515625 -1572.5185546875 -886.46337890625 -1572.393676757812 -886.6895751953125 -1572.167114257812 L -889.579833984375 -1569.276000976562 L -892.47119140625 -1572.167236328125 C -892.6978149414062 -1572.393798828125 -892.9988403320312 -1572.5185546875 -893.31884765625 -1572.5185546875 C -893.638916015625 -1572.5185546875 -893.93994140625 -1572.393798828125 -894.1665649414062 -1572.167236328125 C -894.3931884765625 -1571.940673828125 -894.5179443359375 -1571.639526367188 -894.5179443359375 -1571.319458007812 C -894.5179443359375 -1570.999389648438 -894.3931884765625 -1570.698364257812 -894.1665649414062 -1570.471801757812 L -891.2752685546875 -1567.580444335938 L -894.1665649414062 -1564.68994140625 C -894.3931884765625 -1564.46337890625 -894.5179443359375 -1564.162353515625 -894.5179443359375 -1563.84228515625 C -894.5179443359375 -1563.522216796875 -894.3931884765625 -1563.22119140625 -894.1665649414062 -1562.99462890625 C -893.9401245117188 -1562.76806640625 -893.6390380859375 -1562.643188476562 -893.31884765625 -1562.643188476562 C -892.9986572265625 -1562.643188476562 -892.6976318359375 -1562.76806640625 -892.4711303710938 -1562.99462890625 L -889.5798950195312 -1565.885009765625 Z" stroke="none"/>
    <path d="M -889.4996948242188 -1555.500244140625 C -886.294677734375 -1555.500244140625 -883.28125 -1556.748413085938 -881.0145263671875 -1559.014770507812 C -878.7479248046875 -1561.281494140625 -877.4996337890625 -1564.295043945312 -877.4996337890625 -1567.500366210938 C -877.4996337890625 -1570.705688476562 -878.7479248046875 -1573.71923828125 -881.0145263671875 -1575.98583984375 C -883.28125 -1578.252319335938 -886.294677734375 -1579.50048828125 -889.4996948242188 -1579.50048828125 C -892.7051391601562 -1579.50048828125 -895.7186889648438 -1578.252319335938 -897.9851684570312 -1575.985961914062 C -900.2516479492188 -1573.719482421875 -901.4998168945312 -1570.705810546875 -901.4998168945312 -1567.500366210938 C -901.4998168945312 -1564.294921875 -900.2516479492188 -1561.28125 -897.9852294921875 -1559.014770507812 C -895.7186889648438 -1556.748413085938 -892.7051391601562 -1555.500244140625 -889.4996948242188 -1555.500244140625 M -889.5798950195312 -1565.531494140625 L -892.2942504882812 -1562.817993164062 C -892.5679931640625 -1562.544067382812 -892.931884765625 -1562.393188476562 -893.31884765625 -1562.393188476562 C -893.7058715820312 -1562.393188476562 -894.0697631835938 -1562.544067382812 -894.3433837890625 -1562.81787109375 C -894.6171264648438 -1563.091674804688 -894.7679443359375 -1563.455444335938 -894.7679443359375 -1563.84228515625 C -894.7679443359375 -1564.229125976562 -894.6171264648438 -1564.592895507812 -894.3433227539062 -1564.866821289062 L -891.6288452148438 -1567.580444335938 L -894.3433837890625 -1570.295043945312 C -894.6171264648438 -1570.56884765625 -894.7679443359375 -1570.9326171875 -894.7679443359375 -1571.319458007812 C -894.7679443359375 -1571.706420898438 -894.6171264648438 -1572.070190429688 -894.3433227539062 -1572.344116210938 C -894.0694580078125 -1572.617797851562 -893.7056884765625 -1572.7685546875 -893.31884765625 -1572.7685546875 C -892.9320678710938 -1572.7685546875 -892.5682983398438 -1572.617797851562 -892.2943725585938 -1572.343994140625 L -889.5798950195312 -1569.629516601562 L -886.8665161132812 -1572.343627929688 C -886.5930786132812 -1572.61767578125 -886.229248046875 -1572.7685546875 -885.8419799804688 -1572.7685546875 C -885.4549560546875 -1572.7685546875 -885.091064453125 -1572.617797851562 -884.817138671875 -1572.343994140625 C -884.5433959960938 -1572.070190429688 -884.392578125 -1571.706420898438 -884.392578125 -1571.319458007812 C -884.392578125 -1570.9326171875 -884.5433959960938 -1570.56884765625 -884.8170776367188 -1570.295043945312 L -887.5308837890625 -1567.580444335938 L -884.817138671875 -1564.86669921875 C -884.5433959960938 -1564.592895507812 -884.392578125 -1564.229125976562 -884.392578125 -1563.84228515625 C -884.392578125 -1563.455444335938 -884.5433959960938 -1563.091674804688 -884.8170776367188 -1562.81787109375 C -885.0908813476562 -1562.544067382812 -885.4548950195312 -1562.393188476562 -885.8421020507812 -1562.393188476562 C -886.228759765625 -1562.393188476562 -886.5924682617188 -1562.544067382812 -886.8662109375 -1562.81787109375 L -889.5798950195312 -1565.531494140625 M -889.4996948242188 -1555.000244140625 C -892.8386840820312 -1555.000244140625 -895.977783203125 -1556.300415039062 -898.3387451171875 -1558.661254882812 C -900.6996459960938 -1561.022216796875 -901.9998168945312 -1564.161254882812 -901.9998168945312 -1567.500366210938 C -901.9998168945312 -1570.839477539062 -900.6996459960938 -1573.978515625 -898.3387451171875 -1576.339477539062 C -895.977783203125 -1578.700317382812 -892.8386840820312 -1580.00048828125 -889.4996948242188 -1580.00048828125 C -886.1611328125 -1580.00048828125 -883.0221557617188 -1578.700317382812 -880.6610107421875 -1576.339477539062 C -878.2999267578125 -1573.978393554688 -876.9996337890625 -1570.839233398438 -876.9996337890625 -1567.500366210938 C -876.9996337890625 -1564.161499023438 -878.2999267578125 -1561.022338867188 -880.6610107421875 -1558.661254882812 C -883.0221557617188 -1556.300415039062 -886.1611328125 -1555.000244140625 -889.4996948242188 -1555.000244140625 Z M -889.579833984375 -1566.238525390625 L -889.5791015625 -1566.23779296875 L -886.5126342773438 -1563.17138671875 C -886.333251953125 -1562.991943359375 -886.0950927734375 -1562.893188476562 -885.8421020507812 -1562.893188476562 C -885.5885620117188 -1562.893188476562 -885.35009765625 -1562.991943359375 -885.1707153320312 -1563.17138671875 C -884.9913940429688 -1563.350708007812 -884.892578125 -1563.588989257812 -884.892578125 -1563.84228515625 C -884.892578125 -1564.095581054688 -884.9913940429688 -1564.333862304688 -885.1707153320312 -1564.51318359375 L -888.2379150390625 -1567.580444335938 L -885.1707153320312 -1570.648559570312 C -884.9913940429688 -1570.827880859375 -884.892578125 -1571.066162109375 -884.892578125 -1571.319458007812 C -884.892578125 -1571.57275390625 -884.9913940429688 -1571.811157226562 -885.1707153320312 -1571.990478515625 C -885.35009765625 -1572.169799804688 -885.5885009765625 -1572.2685546875 -885.8419799804688 -1572.2685546875 C -886.0955200195312 -1572.2685546875 -886.3336791992188 -1572.169799804688 -886.5126342773438 -1571.990478515625 L -889.579833984375 -1568.92236328125 L -892.64794921875 -1571.990478515625 C -892.8273315429688 -1572.169799804688 -893.0656127929688 -1572.2685546875 -893.31884765625 -1572.2685546875 C -893.5721435546875 -1572.2685546875 -893.8104248046875 -1572.169799804688 -893.9898071289062 -1571.990478515625 C -894.1691284179688 -1571.811157226562 -894.2679443359375 -1571.57275390625 -894.2679443359375 -1571.319458007812 C -894.2679443359375 -1571.066162109375 -894.1691284179688 -1570.827880859375 -893.9898071289062 -1570.648559570312 L -890.9216918945312 -1567.580444335938 L -893.9898071289062 -1564.51318359375 C -894.1691284179688 -1564.333862304688 -894.2679443359375 -1564.095581054688 -894.2679443359375 -1563.84228515625 C -894.2679443359375 -1563.588989257812 -894.1691284179688 -1563.350708007812 -893.9898071289062 -1563.17138671875 C -893.8104858398438 -1562.991943359375 -893.5722045898438 -1562.893188476562 -893.31884765625 -1562.893188476562 C -893.0655517578125 -1562.893188476562 -892.8272705078125 -1562.991943359375 -892.64794921875 -1563.17138671875 L -889.58056640625 -1566.23779296875 L -889.579833984375 -1566.238525390625 Z" stroke="none" fill="#fff"/>
  </g>
</svg>
