<svg xmlns="http://www.w3.org/2000/svg" viewBox="0 0 25 25">
  <path id="success_icon" data-name="success icon" d="M101.5-2345a12.579,12.579,0,0,1-2.519-.254,12.423,12.423,0,0,1-2.346-.728,12.484,12.484,0,0,1-2.123-1.153,12.6,12.6,0,0,1-1.85-1.526,12.594,12.594,0,0,1-1.526-1.85,12.5,12.5,0,0,1-1.152-2.123,12.435,12.435,0,0,1-.728-2.346A12.593,12.593,0,0,1,89-2357.5a12.56,12.56,0,0,1,.246-2.513,12.4,12.4,0,0,1,.72-2.342,12.457,12.457,0,0,1,1.143-2.121,12.552,12.552,0,0,1,1.517-1.849,12.569,12.569,0,0,1,1.84-1.527,12.474,12.474,0,0,1,2.114-1.155,12.4,12.4,0,0,1,2.338-.733,12.573,12.573,0,0,1,2.511-.26h.071a12.6,12.6,0,0,1,2.519.254,12.441,12.441,0,0,1,2.346.728,12.518,12.518,0,0,1,2.123,1.153,12.592,12.592,0,0,1,1.85,1.526,12.594,12.594,0,0,1,1.526,1.85,12.507,12.507,0,0,1,1.152,2.123,12.44,12.44,0,0,1,.728,2.346A12.593,12.593,0,0,1,114-2357.5a12.593,12.593,0,0,1-.254,2.519,12.434,12.434,0,0,1-.728,2.346,12.5,12.5,0,0,1-1.152,2.123,12.6,12.6,0,0,1-1.526,1.85,12.593,12.593,0,0,1-1.85,1.526,12.484,12.484,0,0,1-2.123,1.153,12.423,12.423,0,0,1-2.346.728A12.579,12.579,0,0,1,101.5-2345Zm-4.9-13.992L94.576-2357l4.972,4.936,8.878-8.878-2.024-1.989-6.854,6.854-2.947-2.912Z" transform="translate(-89 2370)" fill="#5cf4dd"/>
</svg>
