<svg xmlns="http://www.w3.org/2000/svg" width="35" height="32.5" viewBox="0 0 35 32.5">
  <path id="Icon_ionic-ios-star" data-name="Icon ionic-ios-star" d="M35.922,14.625H24.43L20.938,4.2a1.265,1.265,0,0,0-2.375,0L15.07,14.625H3.5a1.254,1.254,0,0,0-1.25,1.25.919.919,0,0,0,.023.211,1.2,1.2,0,0,0,.523.883l9.445,6.656L8.617,34.164a1.254,1.254,0,0,0,.43,1.406,1.209,1.209,0,0,0,.7.3,1.532,1.532,0,0,0,.781-.281l9.219-6.57,9.219,6.57a1.464,1.464,0,0,0,.781.281,1.122,1.122,0,0,0,.7-.3,1.238,1.238,0,0,0,.43-1.406L27.25,23.625l9.367-6.719.227-.2a1.311,1.311,0,0,0,.406-.836A1.323,1.323,0,0,0,35.922,14.625Z" transform="translate(-2.25 -3.375)" fill="#5ca8f4"/>
</svg>
