<svg xmlns="http://www.w3.org/2000/svg" width="144.766" height="60" viewBox="0 0 144.766 60">
  <path id="stripe_icon" data-name="stripe icon"
        d="M1124.115-5049.7h8.847l.523,2.483a11.384,11.384,0,0,1,7.882-3.124c7.037,0,13.672,6.328,13.712,17.943,0,12.7-6.555,18.464-13.753,18.464a11.347,11.347,0,0,1-7.118-2.523l-.04,11.335L1124.115-5003Zm10.053,10.214.04,14.86a6.024,6.024,0,0,0,4.745,1.882c3.7,0,6.193-4,6.193-9.372,0-5.247-2.533-9.333-6.193-9.333A6,6,0,0,0,1134.168-5039.489Zm-64.662,15.3.04-32.083,9.812-2.083-.041,8.691h7.641v8.532h-7.641v14.219c0,5.928,6.354,4.085,7.641,3.564v8.131a15.589,15.589,0,0,1-7.037,1.322A10.084,10.084,0,0,1,1069.506-5024.188Zm-27.064,8.011v-9.533a25.112,25.112,0,0,0,10.978,3.2c2.252,0,3.861-.6,3.861-2.443,0-4.766-15.281-3-15.281-14.058,0-7.089,5.428-11.334,13.592-11.334a26.621,26.621,0,0,1,9.973,1.842v9.413a22.5,22.5,0,0,0-9.973-2.564c-2.131,0-3.418.6-3.418,2.164,0,4.486,15.321,2.363,15.361,14.3,0,7.17-5.75,11.3-14.115,11.3A27.972,27.972,0,0,1,1042.443-5016.178Zm114.446-15.9c0-10.173,5.791-18.264,15.361-18.264,9.531,0,14.517,8.09,14.517,18.344,0,.961-.08,3.043-.08,3.564h-19.665c.443,4.726,3.9,6.088,7.8,6.088a21.426,21.426,0,0,0,9.852-2.2v8.011a22.5,22.5,0,0,1-11.139,2.6C1163.725-5013.935,1156.889-5020.023,1156.889-5032.079Zm10.013-3.725h10.375c0-4.526-2.614-6.408-5.067-6.408C1169.677-5042.212,1166.9-5040.33,1166.9-5035.8Zm-56.62,21.188v-35.046h10.094v35.046Zm-20.146,0v-35.046h8.686l.643,2.964c2.373-4.326,7.077-3.444,8.365-2.964v9.212c-1.247-.44-5.268-1-7.64,2.083v23.751Zm20.146-46.262,10.094-2.123v8.131l-10.094,2.163Z"
        transform="translate(-1042 5063)" fill="#fff"/>
</svg>
