<svg xmlns="http://www.w3.org/2000/svg" width="301.41" height="110.3" viewBox="0 0 301.41 110.3">
    <path id="explanationIcon"
          d="M759.029-1434.862a3.742,3.742,0,0,1-1.089-.432.647.647,0,0,1-.378-.522,1.049,1.049,0,0,1,.036-.18.5.5,0,0,1,.179-.27.457.457,0,0,1,.271-.09.479.479,0,0,1,.216.054,4.582,4.582,0,0,0,2.2.63,3.083,3.083,0,0,0,2.368-.936,3.6,3.6,0,0,0,.873-2.556v-.63a3.3,3.3,0,0,1-1.3,1.215,3.79,3.79,0,0,1-1.836.459,2.972,2.972,0,0,1-2.376-.936,3.746,3.746,0,0,1-.811-2.538v-5.526a.523.523,0,0,1,.154-.387.524.524,0,0,1,.387-.153.524.524,0,0,1,.386.153.523.523,0,0,1,.154.387v5.364a2.955,2.955,0,0,0,.567,1.962,2.2,2.2,0,0,0,1.773.666,2.9,2.9,0,0,0,1.412-.369,3.011,3.011,0,0,0,1.081-.972,2.267,2.267,0,0,0,.405-1.287v-5.364a.522.522,0,0,1,.153-.387.524.524,0,0,1,.387-.153.524.524,0,0,1,.386.153.523.523,0,0,1,.154.387v7.938a4.953,4.953,0,0,1-.558,2.43,3.734,3.734,0,0,1-1.548,1.53,4.71,4.71,0,0,1-2.232.522A5.884,5.884,0,0,1,759.029-1434.862Zm-64.854,0a5.24,5.24,0,0,1-1.188-.414q-.5-.253-.567-.522a.393.393,0,0,1-.126-.288.331.331,0,0,1,.162-.288.289.289,0,0,1,.18-.054,1.408,1.408,0,0,1,.414.126l.378.162a5.8,5.8,0,0,0,2.088.432,3.4,3.4,0,0,0,2.511-.909,3.32,3.32,0,0,0,.909-2.457v-1.116a3.323,3.323,0,0,1-1.422,1.521,4.079,4.079,0,0,1-2.034.549,4.157,4.157,0,0,1-2.241-.621,4.361,4.361,0,0,1-1.575-1.719,5.223,5.223,0,0,1-.576-2.466,5.183,5.183,0,0,1,.576-2.448,4.361,4.361,0,0,1,1.575-1.719,4.125,4.125,0,0,1,2.223-.621,3.966,3.966,0,0,1,2.079.567,3.8,3.8,0,0,1,1.395,1.359v-1.152a.553.553,0,0,1,.153-.4.508.508,0,0,1,.387-.162.527.527,0,0,1,.387.153.548.548,0,0,1,.153.405v7.794a4.679,4.679,0,0,1-.585,2.4,3.879,3.879,0,0,1-1.6,1.521,5.032,5.032,0,0,1-2.331.522A5.808,5.808,0,0,1,694.175-1434.862Zm-.36-11.349a3.4,3.4,0,0,0-1.224,1.359,4.17,4.17,0,0,0-.441,1.926,4.21,4.21,0,0,0,.441,1.944,3.4,3.4,0,0,0,1.224,1.359,3.213,3.213,0,0,0,1.755.495,3.343,3.343,0,0,0,1.773-.477,3.259,3.259,0,0,0,1.224-1.35,4.319,4.319,0,0,0,.441-1.971,4.263,4.263,0,0,0-.441-1.962,3.273,3.273,0,0,0-1.224-1.341,3.343,3.343,0,0,0-1.773-.477A3.213,3.213,0,0,0,693.815-1446.211Zm54.927,7.5a4.21,4.21,0,0,1-1.656-1.665,5.018,5.018,0,0,1-.594-2.475,5.444,5.444,0,0,1,.585-2.583,4.214,4.214,0,0,1,1.557-1.692,3.949,3.949,0,0,1,2.07-.585,4.242,4.242,0,0,1,2.025.5,3.984,3.984,0,0,1,1.539,1.476,4.456,4.456,0,0,1,.612,2.3.489.489,0,0,1-.162.369.535.535,0,0,1-.378.153h-6.8a4.155,4.155,0,0,0,.441,1.935,3.329,3.329,0,0,0,1.26,1.35,3.664,3.664,0,0,0,1.935.495,3.271,3.271,0,0,0,1.548-.36,3.2,3.2,0,0,0,1.1-.918.606.606,0,0,1,.378-.162.448.448,0,0,1,.324.144.451.451,0,0,1,.144.324.534.534,0,0,1-.18.378,4.536,4.536,0,0,1-1.449,1.152,3.977,3.977,0,0,1-1.845.45A4.928,4.928,0,0,1,748.742-1438.714Zm.027-7.236a3.333,3.333,0,0,0-1.143,2.07h6.138v-.144a2.846,2.846,0,0,0-.54-1.413,2.93,2.93,0,0,0-1.125-.918,3.27,3.27,0,0,0-1.4-.315A3.016,3.016,0,0,0,748.769-1445.95Zm-21.879,7.209a4.384,4.384,0,0,1-1.638-1.719,5.05,5.05,0,0,1-.595-2.448,5.05,5.05,0,0,1,.595-2.448,4.451,4.451,0,0,1,1.638-1.728,4.4,4.4,0,0,1,2.322-.63,4.408,4.408,0,0,1,2.322.63,4.458,4.458,0,0,1,1.638,1.728,5.06,5.06,0,0,1,.594,2.448,5.06,5.06,0,0,1-.594,2.448,4.39,4.39,0,0,1-1.638,1.719,4.458,4.458,0,0,1-2.322.621A4.454,4.454,0,0,1,726.89-1438.741Zm.558-7.47a3.508,3.508,0,0,0-1.251,1.359,4.079,4.079,0,0,0-.459,1.944,4.04,4.04,0,0,0,.459,1.926,3.508,3.508,0,0,0,1.251,1.359,3.254,3.254,0,0,0,1.764.495,3.354,3.354,0,0,0,1.773-.486,3.356,3.356,0,0,0,1.25-1.35,4.138,4.138,0,0,0,.451-1.944,4.138,4.138,0,0,0-.451-1.944,3.42,3.42,0,0,0-1.25-1.359,3.3,3.3,0,0,0-1.773-.495A3.254,3.254,0,0,0,727.448-1446.211Zm-78.525,7.461a4.325,4.325,0,0,1-1.512-1.728,5.433,5.433,0,0,1-.549-2.466,5.3,5.3,0,0,1,.558-2.457,4.266,4.266,0,0,1,1.521-1.7,3.9,3.9,0,0,1,2.133-.612,3.873,3.873,0,0,1,1.98.522,3.446,3.446,0,0,1,1.35,1.368v-1.116a.553.553,0,0,1,.153-.4.508.508,0,0,1,.387-.162.511.511,0,0,1,.387.162.557.557,0,0,1,.153.4v8.1a.526.526,0,0,1-.153.387.527.527,0,0,1-.387.153.524.524,0,0,1-.387-.153.522.522,0,0,1-.153-.387v-1.206a3.779,3.779,0,0,1-1.35,1.368,3.658,3.658,0,0,1-1.962.558A3.871,3.871,0,0,1,648.923-1438.75Zm.594-7.47a3.308,3.308,0,0,0-1.17,1.341,4.3,4.3,0,0,0-.423,1.935,4.5,4.5,0,0,0,.414,1.953,3.282,3.282,0,0,0,1.161,1.368,3.006,3.006,0,0,0,1.7.495,2.978,2.978,0,0,0,1.683-.495,3.361,3.361,0,0,0,1.17-1.368,4.425,4.425,0,0,0,.423-1.953,4.285,4.285,0,0,0-.423-1.908,3.375,3.375,0,0,0-1.17-1.359,2.978,2.978,0,0,0-1.683-.495A3.017,3.017,0,0,0,649.517-1446.22Zm-10.845,7.506a4.21,4.21,0,0,1-1.656-1.665,5.018,5.018,0,0,1-.594-2.475,5.444,5.444,0,0,1,.585-2.583,4.215,4.215,0,0,1,1.557-1.692,3.949,3.949,0,0,1,2.07-.585,4.242,4.242,0,0,1,2.025.5,3.984,3.984,0,0,1,1.539,1.476,4.456,4.456,0,0,1,.612,2.3.489.489,0,0,1-.162.369.535.535,0,0,1-.378.153h-6.8a4.155,4.155,0,0,0,.441,1.935,3.329,3.329,0,0,0,1.26,1.35,3.664,3.664,0,0,0,1.935.495,3.271,3.271,0,0,0,1.548-.36,3.2,3.2,0,0,0,1.1-.918.606.606,0,0,1,.378-.162.448.448,0,0,1,.324.144.451.451,0,0,1,.144.324.534.534,0,0,1-.18.378,4.536,4.536,0,0,1-1.449,1.152,3.977,3.977,0,0,1-1.845.45A4.928,4.928,0,0,1,638.672-1438.714Zm.027-7.236a3.333,3.333,0,0,0-1.143,2.07h6.138v-.144a2.846,2.846,0,0,0-.54-1.413,2.93,2.93,0,0,0-1.125-.918,3.27,3.27,0,0,0-1.4-.315A3.016,3.016,0,0,0,638.7-1445.95Zm-30.438,7.2a4.326,4.326,0,0,1-1.512-1.728,5.434,5.434,0,0,1-.549-2.466,5.3,5.3,0,0,1,.558-2.457,4.266,4.266,0,0,1,1.521-1.7,3.9,3.9,0,0,1,2.133-.612,3.873,3.873,0,0,1,1.98.522,3.446,3.446,0,0,1,1.35,1.368v-1.116a.553.553,0,0,1,.153-.4.508.508,0,0,1,.387-.162.511.511,0,0,1,.387.162.557.557,0,0,1,.153.4v8.1a.526.526,0,0,1-.153.387.527.527,0,0,1-.387.153.524.524,0,0,1-.387-.153.522.522,0,0,1-.153-.387v-1.206a3.779,3.779,0,0,1-1.35,1.368,3.658,3.658,0,0,1-1.962.558A3.87,3.87,0,0,1,608.261-1438.75Zm.594-7.47a3.308,3.308,0,0,0-1.17,1.341,4.3,4.3,0,0,0-.423,1.935,4.5,4.5,0,0,0,.414,1.953,3.282,3.282,0,0,0,1.161,1.368,3.005,3.005,0,0,0,1.7.495,2.978,2.978,0,0,0,1.683-.495,3.361,3.361,0,0,0,1.17-1.368,4.425,4.425,0,0,0,.422-1.953,4.285,4.285,0,0,0-.422-1.908,3.375,3.375,0,0,0-1.17-1.359,2.978,2.978,0,0,0-1.683-.495A3.017,3.017,0,0,0,608.855-1446.22Zm-17.829,6.462a.8.8,0,0,1-.144-.4.392.392,0,0,1,.234-.36.388.388,0,0,1,.288-.108.553.553,0,0,1,.4.18,3.367,3.367,0,0,0,2.826,1.4,2.749,2.749,0,0,0,1.5-.405,1.312,1.312,0,0,0,.639-1.179,1.255,1.255,0,0,0-.594-1.134,5.8,5.8,0,0,0-1.656-.648,7,7,0,0,1-2.34-.981,2.038,2.038,0,0,1-.846-1.773,2.231,2.231,0,0,1,.414-1.323,2.728,2.728,0,0,1,1.125-.909,3.84,3.84,0,0,1,1.611-.324,4.367,4.367,0,0,1,1.557.3,3.287,3.287,0,0,1,1.341.945.429.429,0,0,1,.162.36.5.5,0,0,1-.18.378.483.483,0,0,1-.324.108.444.444,0,0,1-.324-.144,2.845,2.845,0,0,0-1.026-.738,3.234,3.234,0,0,0-1.278-.252,2.58,2.58,0,0,0-1.449.4,1.325,1.325,0,0,0-.6,1.188,1.292,1.292,0,0,0,.657,1.1,6.9,6.9,0,0,0,1.827.684,8.6,8.6,0,0,1,1.548.522,2.6,2.6,0,0,1,1,.81,2.278,2.278,0,0,1,.387,1.386,2.2,2.2,0,0,1-.936,1.863,3.8,3.8,0,0,1-2.322.693A4.221,4.221,0,0,1,591.026-1439.758Zm177.138,1.458a.622.622,0,0,1-.486-.18.726.726,0,0,1-.162-.5v-.4a.726.726,0,0,1,.162-.5.622.622,0,0,1,.486-.18h.108a.6.6,0,0,1,.468.18.726.726,0,0,1,.162.5v.4a.726.726,0,0,1-.162.5.6.6,0,0,1-.468.18Zm-25.174-.153a.525.525,0,0,1-.152-.387v-5.238a2.942,2.942,0,0,0-.585-1.9,2.182,2.182,0,0,0-1.809-.729,3.133,3.133,0,0,0-1.467.36,3.134,3.134,0,0,0-1.125.963,2.191,2.191,0,0,0-.432,1.305v5.238a.523.523,0,0,1-.154.387.524.524,0,0,1-.386.153.524.524,0,0,1-.387-.153.523.523,0,0,1-.154-.387v-8.064a.523.523,0,0,1,.154-.387.524.524,0,0,1,.387-.153.524.524,0,0,1,.386.153.523.523,0,0,1,.154.387v.99a3.816,3.816,0,0,1,1.4-1.287,3.745,3.745,0,0,1,1.863-.513,2.954,2.954,0,0,1,2.457.981,4.049,4.049,0,0,1,.783,2.6v5.292a.51.51,0,0,1-.162.387.534.534,0,0,1-.378.153A.528.528,0,0,1,742.991-1438.453Zm-21.833,0a.522.522,0,0,1-.153-.387v-5.04a3.113,3.113,0,0,0-.567-1.935,2.064,2.064,0,0,0-1.755-.747,2.993,2.993,0,0,0-1.431.36,2.958,2.958,0,0,0-1.089.981,2.37,2.37,0,0,0-.414,1.341v5.04a.526.526,0,0,1-.153.387.527.527,0,0,1-.387.153.524.524,0,0,1-.387-.153.522.522,0,0,1-.153-.387v-5.094a3.11,3.11,0,0,0-.54-1.9,1.967,1.967,0,0,0-1.692-.729,2.853,2.853,0,0,0-1.395.36,2.981,2.981,0,0,0-1.062.963,2.3,2.3,0,0,0-.405,1.3v5.094a.526.526,0,0,1-.153.387.527.527,0,0,1-.387.153.524.524,0,0,1-.387-.153.522.522,0,0,1-.153-.387v-8.064a.522.522,0,0,1,.153-.387.524.524,0,0,1,.387-.153.527.527,0,0,1,.387.153.525.525,0,0,1,.153.387v1.044a3.9,3.9,0,0,1,1.314-1.224,3.4,3.4,0,0,1,1.746-.486,3.167,3.167,0,0,1,1.8.5,2.747,2.747,0,0,1,1.081,1.476,3.332,3.332,0,0,1,1.386-1.386,3.968,3.968,0,0,1,2.033-.594,2.814,2.814,0,0,1,2.386,1,4.227,4.227,0,0,1,.765,2.637v5.094a.526.526,0,0,1-.153.387.527.527,0,0,1-.387.153A.524.524,0,0,1,721.157-1438.453Zm-33.57,0a.522.522,0,0,1-.153-.387v-5.238a2.942,2.942,0,0,0-.585-1.9,2.182,2.182,0,0,0-1.809-.729,3.133,3.133,0,0,0-1.467.36,3.133,3.133,0,0,0-1.125.963,2.2,2.2,0,0,0-.432,1.305v5.238a.526.526,0,0,1-.153.387.527.527,0,0,1-.387.153.524.524,0,0,1-.387-.153.522.522,0,0,1-.153-.387v-8.064a.522.522,0,0,1,.153-.387.524.524,0,0,1,.387-.153.527.527,0,0,1,.387.153.526.526,0,0,1,.153.387v.99a3.816,3.816,0,0,1,1.4-1.287,3.745,3.745,0,0,1,1.863-.513,2.954,2.954,0,0,1,2.457.981,4.049,4.049,0,0,1,.783,2.6v5.292a.51.51,0,0,1-.162.387.534.534,0,0,1-.378.153A.524.524,0,0,1,687.587-1438.453Zm-10.746,0a.522.522,0,0,1-.153-.387v-8.28a.522.522,0,0,1,.153-.387.524.524,0,0,1,.387-.153.527.527,0,0,1,.387.153.526.526,0,0,1,.153.387v8.28a.526.526,0,0,1-.153.387.527.527,0,0,1-.387.153A.524.524,0,0,1,676.841-1438.453Zm-4.231,0a.525.525,0,0,1-.152-.387v-5.238a2.942,2.942,0,0,0-.585-1.9,2.183,2.183,0,0,0-1.81-.729,3.132,3.132,0,0,0-1.466.36,3.134,3.134,0,0,0-1.125.963,2.191,2.191,0,0,0-.432,1.305v5.238a.523.523,0,0,1-.154.387.524.524,0,0,1-.386.153.524.524,0,0,1-.387-.153.523.523,0,0,1-.154-.387v-8.064a.523.523,0,0,1,.154-.387.524.524,0,0,1,.387-.153.524.524,0,0,1,.386.153.523.523,0,0,1,.154.387v.99a3.816,3.816,0,0,1,1.4-1.287,3.745,3.745,0,0,1,1.863-.513,2.954,2.954,0,0,1,2.457.981,4.048,4.048,0,0,1,.782,2.6v5.292a.509.509,0,0,1-.161.387.534.534,0,0,1-.378.153A.528.528,0,0,1,672.611-1438.453Zm-13.787,0a.522.522,0,0,1-.153-.387v-8.064a.522.522,0,0,1,.153-.387.524.524,0,0,1,.387-.153.527.527,0,0,1,.387.153.526.526,0,0,1,.153.387v1.584a4.127,4.127,0,0,1,1.251-1.7,3.126,3.126,0,0,1,1.971-.693,1.429,1.429,0,0,1,.648.144.462.462,0,0,1,.288.432.568.568,0,0,1-.144.405.457.457,0,0,1-.342.153,1.356,1.356,0,0,1-.351-.09,1.516,1.516,0,0,0-.495-.09,2.14,2.14,0,0,0-1.323.513,3.988,3.988,0,0,0-1.08,1.323,3.5,3.5,0,0,0-.423,1.638v4.446a.526.526,0,0,1-.153.387.527.527,0,0,1-.387.153A.524.524,0,0,1,658.823-1438.453Zm-31.725.063a1.375,1.375,0,0,1-.729-.54,2.352,2.352,0,0,1-.351-1.44v-6.084H624.7a.517.517,0,0,1-.369-.144.472.472,0,0,1-.153-.36.472.472,0,0,1,.153-.36.518.518,0,0,1,.369-.144h1.314v-2a.522.522,0,0,1,.153-.387.524.524,0,0,1,.387-.153.527.527,0,0,1,.387.153.526.526,0,0,1,.153.387v2h1.8a.472.472,0,0,1,.351.162.513.513,0,0,1,.153.36.461.461,0,0,1-.144.351.506.506,0,0,1-.36.135h-1.8v6.03a1.287,1.287,0,0,0,.252.927.918.918,0,0,0,.666.243,1.062,1.062,0,0,0,.27-.045,1.029,1.029,0,0,1,.252-.045.358.358,0,0,1,.279.135.47.47,0,0,1,.117.315.494.494,0,0,1-.288.423,1.315,1.315,0,0,1-.684.171A3.731,3.731,0,0,1,627.1-1438.39Zm-8.937-.063a.522.522,0,0,1-.153-.387v-8.064a.522.522,0,0,1,.153-.387.524.524,0,0,1,.387-.153.527.527,0,0,1,.387.153.526.526,0,0,1,.153.387v1.584a4.127,4.127,0,0,1,1.251-1.7,3.126,3.126,0,0,1,1.971-.693,1.429,1.429,0,0,1,.648.144.462.462,0,0,1,.288.432.568.568,0,0,1-.144.405.457.457,0,0,1-.342.153,1.356,1.356,0,0,1-.351-.09,1.516,1.516,0,0,0-.495-.09,2.14,2.14,0,0,0-1.323.513,3.988,3.988,0,0,0-1.08,1.323,3.5,3.5,0,0,0-.423,1.638v4.446a.526.526,0,0,1-.153.387.527.527,0,0,1-.387.153A.524.524,0,0,1,618.161-1438.453Zm-16.011.063a1.375,1.375,0,0,1-.729-.54,2.352,2.352,0,0,1-.351-1.44v-6.084h-1.314a.517.517,0,0,1-.369-.144.472.472,0,0,1-.153-.36.472.472,0,0,1,.153-.36.518.518,0,0,1,.369-.144h1.314v-2a.522.522,0,0,1,.153-.387.524.524,0,0,1,.387-.153.527.527,0,0,1,.387.153.526.526,0,0,1,.153.387v2h1.8a.472.472,0,0,1,.351.162.513.513,0,0,1,.153.36.461.461,0,0,1-.144.351.506.506,0,0,1-.36.135h-1.8v6.03a1.287,1.287,0,0,0,.252.927.918.918,0,0,0,.666.243,1.062,1.062,0,0,0,.27-.045,1.029,1.029,0,0,1,.252-.045.358.358,0,0,1,.279.135.47.47,0,0,1,.117.315.494.494,0,0,1-.288.423,1.315,1.315,0,0,1-.684.171A3.731,3.731,0,0,1,602.15-1438.39Zm165.69-3.816-.2-7.956a.9.9,0,0,1,.144-.54.5.5,0,0,1,.432-.2.493.493,0,0,1,.432.207.831.831,0,0,1,.126.531l-.2,7.956q-.019.378-.36.378Q767.894-1441.828,767.84-1442.206Zm-91.17-6.831a.618.618,0,0,1-.2-.495v-.18a.6.6,0,0,1,.207-.495.861.861,0,0,1,.567-.171q.72,0,.72.666v.18a.634.634,0,0,1-.189.495.791.791,0,0,1-.549.171A.824.824,0,0,1,676.67-1449.037Zm-54.018-13.816a.522.522,0,0,1-.153-.387v-11.736a.553.553,0,0,1,.153-.4.508.508,0,0,1,.387-.162.511.511,0,0,1,.387.162.557.557,0,0,1,.153.4v1.224a3.346,3.346,0,0,1,1.35-1.332,3.959,3.959,0,0,1,1.944-.486,4.012,4.012,0,0,1,2.16.6,4.157,4.157,0,0,1,1.521,1.674,5.2,5.2,0,0,1,.549,2.4,5.237,5.237,0,0,1-.549,2.421,4.243,4.243,0,0,1-1.512,1.683,3.931,3.931,0,0,1-2.151.612,3.813,3.813,0,0,1-1.917-.495,3.884,3.884,0,0,1-1.4-1.323v4.752a.526.526,0,0,1-.153.387.527.527,0,0,1-.387.153A.524.524,0,0,1,622.652-1462.853Zm2.421-11.241a3.126,3.126,0,0,0-1.17,1.305,4.222,4.222,0,0,0-.414,1.9,4.28,4.28,0,0,0,.414,1.908,3.169,3.169,0,0,0,1.17,1.323,3.139,3.139,0,0,0,1.71.477,3.066,3.066,0,0,0,1.683-.477,3.264,3.264,0,0,0,1.17-1.323,4.212,4.212,0,0,0,.423-1.908,4.116,4.116,0,0,0-.423-1.881,3.28,3.28,0,0,0-1.17-1.314,3.065,3.065,0,0,0-1.683-.477A3.179,3.179,0,0,0,625.073-1474.094Zm-45.657,11.232a3.746,3.746,0,0,1-1.089-.432.647.647,0,0,1-.378-.522,1.051,1.051,0,0,1,.036-.18.491.491,0,0,1,.18-.27.452.452,0,0,1,.27-.09.479.479,0,0,1,.216.054,4.582,4.582,0,0,0,2.2.63,3.082,3.082,0,0,0,2.367-.936,3.6,3.6,0,0,0,.873-2.556v-.63a3.3,3.3,0,0,1-1.3,1.215,3.79,3.79,0,0,1-1.836.459,2.972,2.972,0,0,1-2.376-.936,3.746,3.746,0,0,1-.81-2.538v-5.526a.522.522,0,0,1,.153-.387.524.524,0,0,1,.387-.153.527.527,0,0,1,.387.153.526.526,0,0,1,.153.387v5.364a2.95,2.95,0,0,0,.567,1.962,2.2,2.2,0,0,0,1.773.666,2.91,2.91,0,0,0,1.413-.369,3.015,3.015,0,0,0,1.08-.972,2.267,2.267,0,0,0,.4-1.287v-5.364a.522.522,0,0,1,.153-.387.524.524,0,0,1,.387-.153.527.527,0,0,1,.387.153.526.526,0,0,1,.153.387v7.938a4.953,4.953,0,0,1-.558,2.43,3.735,3.735,0,0,1-1.548,1.53,4.71,4.71,0,0,1-2.232.522A5.884,5.884,0,0,1,579.416-1462.862Zm244.368-3.879a4.324,4.324,0,0,1-1.521-1.719,5.357,5.357,0,0,1-.558-2.466,5.316,5.316,0,0,1,.558-2.448,4.324,4.324,0,0,1,1.521-1.719,3.853,3.853,0,0,1,2.133-.621,3.8,3.8,0,0,1,1.962.531,3.632,3.632,0,0,1,1.368,1.377v-5.274a.522.522,0,0,1,.153-.387.524.524,0,0,1,.387-.153.527.527,0,0,1,.387.153.525.525,0,0,1,.153.387v12.24a.525.525,0,0,1-.153.387.527.527,0,0,1-.387.153.524.524,0,0,1-.387-.153.522.522,0,0,1-.153-.387v-1.26a3.891,3.891,0,0,1-1.341,1.4,3.553,3.553,0,0,1-1.971.576A3.884,3.884,0,0,1,823.784-1466.741Zm.576-7.47a3.361,3.361,0,0,0-1.17,1.359,4.312,4.312,0,0,0-.423,1.926,4.355,4.355,0,0,0,.423,1.944,3.362,3.362,0,0,0,1.17,1.359,2.974,2.974,0,0,0,1.683.495,3.02,3.02,0,0,0,1.683-.486,3.293,3.293,0,0,0,1.17-1.359,4.426,4.426,0,0,0,.423-1.953,4.324,4.324,0,0,0-.423-1.926,3.375,3.375,0,0,0-1.17-1.359,2.978,2.978,0,0,0-1.683-.495A2.974,2.974,0,0,0,824.36-1474.211Zm-22.554,7.461a4.324,4.324,0,0,1-1.512-1.728,5.434,5.434,0,0,1-.549-2.466,5.3,5.3,0,0,1,.558-2.457,4.266,4.266,0,0,1,1.521-1.7,3.9,3.9,0,0,1,2.133-.612,3.874,3.874,0,0,1,1.98.522,3.446,3.446,0,0,1,1.35,1.368v-1.116a.553.553,0,0,1,.153-.4.508.508,0,0,1,.387-.162.511.511,0,0,1,.387.162.557.557,0,0,1,.153.4v8.1a.526.526,0,0,1-.153.387.527.527,0,0,1-.387.153.524.524,0,0,1-.387-.153.522.522,0,0,1-.153-.387v-1.206a3.779,3.779,0,0,1-1.35,1.368,3.658,3.658,0,0,1-1.962.558A3.871,3.871,0,0,1,801.806-1466.75Zm.594-7.47a3.309,3.309,0,0,0-1.17,1.341,4.3,4.3,0,0,0-.423,1.935,4.5,4.5,0,0,0,.414,1.953,3.286,3.286,0,0,0,1.16,1.368,3.01,3.01,0,0,0,1.7.495,2.978,2.978,0,0,0,1.683-.495,3.361,3.361,0,0,0,1.17-1.368,4.425,4.425,0,0,0,.423-1.953,4.284,4.284,0,0,0-.423-1.908,3.375,3.375,0,0,0-1.17-1.359,2.978,2.978,0,0,0-1.683-.495A3.017,3.017,0,0,0,802.4-1474.22Zm-16.641,6.462a.8.8,0,0,1-.144-.4.392.392,0,0,1,.234-.36.388.388,0,0,1,.288-.108.553.553,0,0,1,.4.18,3.367,3.367,0,0,0,2.826,1.4,2.749,2.749,0,0,0,1.5-.405,1.312,1.312,0,0,0,.639-1.179,1.255,1.255,0,0,0-.594-1.134,5.8,5.8,0,0,0-1.656-.648,7,7,0,0,1-2.34-.981,2.038,2.038,0,0,1-.846-1.773,2.231,2.231,0,0,1,.414-1.323,2.729,2.729,0,0,1,1.125-.909,3.84,3.84,0,0,1,1.61-.324,4.368,4.368,0,0,1,1.558.3,3.286,3.286,0,0,1,1.341.945.429.429,0,0,1,.162.36.5.5,0,0,1-.18.378.482.482,0,0,1-.324.108.445.445,0,0,1-.324-.144,2.845,2.845,0,0,0-1.026-.738,3.235,3.235,0,0,0-1.278-.252,2.581,2.581,0,0,0-1.449.4,1.325,1.325,0,0,0-.6,1.188,1.292,1.292,0,0,0,.657,1.1,6.893,6.893,0,0,0,1.827.684,8.6,8.6,0,0,1,1.548.522,2.6,2.6,0,0,1,1,.81,2.278,2.278,0,0,1,.387,1.386,2.2,2.2,0,0,1-.936,1.863,3.8,3.8,0,0,1-2.322.693A4.221,4.221,0,0,1,785.759-1467.758Zm-25.795,1.044a4.214,4.214,0,0,1-1.655-1.665,5.009,5.009,0,0,1-.595-2.475,5.444,5.444,0,0,1,.586-2.583,4.215,4.215,0,0,1,1.557-1.692,3.949,3.949,0,0,1,2.07-.585,4.242,4.242,0,0,1,2.025.5,3.977,3.977,0,0,1,1.538,1.476,4.457,4.457,0,0,1,.613,2.3.489.489,0,0,1-.162.369.534.534,0,0,1-.378.153h-6.8a4.155,4.155,0,0,0,.441,1.935,3.333,3.333,0,0,0,1.259,1.35,3.669,3.669,0,0,0,1.936.495,3.271,3.271,0,0,0,1.548-.36,3.2,3.2,0,0,0,1.1-.918.606.606,0,0,1,.378-.162.447.447,0,0,1,.324.144.45.45,0,0,1,.143.324.532.532,0,0,1-.179.378,4.535,4.535,0,0,1-1.449,1.152,3.978,3.978,0,0,1-1.846.45A4.932,4.932,0,0,1,759.965-1466.714Zm.028-7.236a3.333,3.333,0,0,0-1.143,2.07h6.138v-.144a2.846,2.846,0,0,0-.54-1.413,2.931,2.931,0,0,0-1.125-.918,3.269,3.269,0,0,0-1.4-.315A3.016,3.016,0,0,0,759.992-1473.95Zm-18.441,7.209a4.239,4.239,0,0,1-1.593-1.719,5.284,5.284,0,0,1-.567-2.466,5.058,5.058,0,0,1,.576-2.4,4.456,4.456,0,0,1,1.62-1.737,4.444,4.444,0,0,1,2.393-.648,6.262,6.262,0,0,1,1.576.189,3.421,3.421,0,0,1,1.17.513.9.9,0,0,1,.441.7.548.548,0,0,1-.135.36.418.418,0,0,1-.333.162.558.558,0,0,1-.3-.072,1.433,1.433,0,0,1-.261-.216,1.819,1.819,0,0,0-.45-.342,3.017,3.017,0,0,0-.711-.207,5.241,5.241,0,0,0-.945-.081,3.384,3.384,0,0,0-1.809.5,3.574,3.574,0,0,0-1.288,1.368,3.948,3.948,0,0,0-.467,1.908,4.137,4.137,0,0,0,.45,1.944,3.416,3.416,0,0,0,1.251,1.359,3.4,3.4,0,0,0,1.827.495,3.986,3.986,0,0,0,1.035-.108,3.913,3.913,0,0,0,.765-.306,3.735,3.735,0,0,0,.431-.324,1.763,1.763,0,0,1,.253-.189.451.451,0,0,1,.234-.063.444.444,0,0,1,.341.135.491.491,0,0,1,.127.351.935.935,0,0,1-.432.657,3.793,3.793,0,0,1-1.188.6,5.261,5.261,0,0,1-1.674.252A4.427,4.427,0,0,1,741.551-1466.741Zm-16.272,0a4.384,4.384,0,0,1-1.638-1.719,5.06,5.06,0,0,1-.594-2.448,5.06,5.06,0,0,1,.594-2.448,4.451,4.451,0,0,1,1.638-1.728,4.4,4.4,0,0,1,2.322-.63,4.408,4.408,0,0,1,2.322.63,4.457,4.457,0,0,1,1.638,1.728,5.06,5.06,0,0,1,.594,2.448,5.06,5.06,0,0,1-.594,2.448,4.39,4.39,0,0,1-1.638,1.719,4.458,4.458,0,0,1-2.322.621A4.454,4.454,0,0,1,725.279-1466.741Zm.558-7.47a3.508,3.508,0,0,0-1.251,1.359,4.078,4.078,0,0,0-.459,1.944,4.04,4.04,0,0,0,.459,1.926,3.509,3.509,0,0,0,1.251,1.359,3.257,3.257,0,0,0,1.764.495,3.353,3.353,0,0,0,1.773-.486,3.362,3.362,0,0,0,1.251-1.35,4.148,4.148,0,0,0,.45-1.944,4.148,4.148,0,0,0-.45-1.944,3.428,3.428,0,0,0-1.251-1.359,3.3,3.3,0,0,0-1.773-.495A3.257,3.257,0,0,0,725.837-1474.211Zm-57.294,7.5a4.211,4.211,0,0,1-1.656-1.665,5.018,5.018,0,0,1-.594-2.475,5.444,5.444,0,0,1,.585-2.583,4.215,4.215,0,0,1,1.557-1.692,3.949,3.949,0,0,1,2.07-.585,4.242,4.242,0,0,1,2.025.5,3.985,3.985,0,0,1,1.539,1.476,4.465,4.465,0,0,1,.612,2.3.489.489,0,0,1-.162.369.534.534,0,0,1-.378.153h-6.8a4.155,4.155,0,0,0,.441,1.935,3.333,3.333,0,0,0,1.259,1.35,3.669,3.669,0,0,0,1.936.495,3.271,3.271,0,0,0,1.548-.36,3.2,3.2,0,0,0,1.1-.918.606.606,0,0,1,.378-.162.447.447,0,0,1,.324.144.45.45,0,0,1,.143.324.533.533,0,0,1-.179.378,4.535,4.535,0,0,1-1.449,1.152,3.977,3.977,0,0,1-1.845.45A4.928,4.928,0,0,1,668.543-1466.714Zm.027-7.236a3.333,3.333,0,0,0-1.143,2.07h6.138v-.144a2.846,2.846,0,0,0-.54-1.413,2.93,2.93,0,0,0-1.125-.918,3.268,3.268,0,0,0-1.395-.315A3.016,3.016,0,0,0,668.57-1473.95Zm-26.361,7.209a4.384,4.384,0,0,1-1.638-1.719,5.06,5.06,0,0,1-.594-2.448,5.06,5.06,0,0,1,.594-2.448,4.451,4.451,0,0,1,1.638-1.728,4.4,4.4,0,0,1,2.322-.63,4.408,4.408,0,0,1,2.322.63,4.457,4.457,0,0,1,1.638,1.728,5.06,5.06,0,0,1,.594,2.448,5.06,5.06,0,0,1-.594,2.448,4.39,4.39,0,0,1-1.638,1.719,4.458,4.458,0,0,1-2.322.621A4.454,4.454,0,0,1,642.209-1466.741Zm.558-7.47a3.508,3.508,0,0,0-1.251,1.359,4.078,4.078,0,0,0-.459,1.944,4.04,4.04,0,0,0,.459,1.926,3.509,3.509,0,0,0,1.251,1.359,3.257,3.257,0,0,0,1.764.495,3.353,3.353,0,0,0,1.773-.486,3.362,3.362,0,0,0,1.251-1.35,4.148,4.148,0,0,0,.45-1.944,4.148,4.148,0,0,0-.45-1.944,3.429,3.429,0,0,0-1.251-1.359,3.3,3.3,0,0,0-1.773-.495A3.257,3.257,0,0,0,642.767-1474.211Zm-52.884,7.47a4.384,4.384,0,0,1-1.638-1.719,5.06,5.06,0,0,1-.594-2.448,5.06,5.06,0,0,1,.594-2.448,4.451,4.451,0,0,1,1.638-1.728,4.4,4.4,0,0,1,2.322-.63,4.408,4.408,0,0,1,2.322.63,4.457,4.457,0,0,1,1.638,1.728,5.06,5.06,0,0,1,.594,2.448,5.06,5.06,0,0,1-.594,2.448,4.39,4.39,0,0,1-1.638,1.719,4.458,4.458,0,0,1-2.322.621A4.454,4.454,0,0,1,589.883-1466.741Zm.558-7.47a3.508,3.508,0,0,0-1.251,1.359,4.078,4.078,0,0,0-.459,1.944,4.04,4.04,0,0,0,.459,1.926,3.508,3.508,0,0,0,1.251,1.359,3.257,3.257,0,0,0,1.764.495,3.353,3.353,0,0,0,1.773-.486,3.363,3.363,0,0,0,1.251-1.35,4.148,4.148,0,0,0,.45-1.944,4.148,4.148,0,0,0-.45-1.944,3.429,3.429,0,0,0-1.251-1.359,3.3,3.3,0,0,0-1.773-.495A3.257,3.257,0,0,0,590.441-1474.211Zm-27.675,7.47a4.324,4.324,0,0,1-1.521-1.719,5.357,5.357,0,0,1-.558-2.466,5.316,5.316,0,0,1,.558-2.448,4.324,4.324,0,0,1,1.521-1.719,3.853,3.853,0,0,1,2.133-.621,3.8,3.8,0,0,1,1.962.531,3.632,3.632,0,0,1,1.368,1.377v-5.274a.522.522,0,0,1,.153-.387.524.524,0,0,1,.387-.153.527.527,0,0,1,.387.153.525.525,0,0,1,.153.387v12.24a.525.525,0,0,1-.153.387.527.527,0,0,1-.387.153.524.524,0,0,1-.387-.153.522.522,0,0,1-.153-.387v-1.26a3.891,3.891,0,0,1-1.341,1.4,3.553,3.553,0,0,1-1.971.576A3.884,3.884,0,0,1,562.766-1466.741Zm.576-7.47a3.361,3.361,0,0,0-1.17,1.359,4.312,4.312,0,0,0-.423,1.926,4.355,4.355,0,0,0,.423,1.944,3.362,3.362,0,0,0,1.17,1.359,2.974,2.974,0,0,0,1.683.495,3.02,3.02,0,0,0,1.683-.486,3.293,3.293,0,0,0,1.17-1.359,4.426,4.426,0,0,0,.423-1.953,4.324,4.324,0,0,0-.423-1.926,3.375,3.375,0,0,0-1.17-1.359,2.978,2.978,0,0,0-1.683-.495A2.974,2.974,0,0,0,563.342-1474.211Zm-21.537,7.5a4.21,4.21,0,0,1-1.656-1.665,5.018,5.018,0,0,1-.594-2.475,5.444,5.444,0,0,1,.585-2.583,4.215,4.215,0,0,1,1.557-1.692,3.949,3.949,0,0,1,2.07-.585,4.242,4.242,0,0,1,2.025.5,3.985,3.985,0,0,1,1.539,1.476,4.457,4.457,0,0,1,.612,2.3.489.489,0,0,1-.162.369.535.535,0,0,1-.378.153h-6.8a4.155,4.155,0,0,0,.441,1.935,3.329,3.329,0,0,0,1.26,1.35,3.664,3.664,0,0,0,1.935.495,3.271,3.271,0,0,0,1.548-.36,3.2,3.2,0,0,0,1.1-.918.607.607,0,0,1,.378-.162.448.448,0,0,1,.324.144.451.451,0,0,1,.144.324.534.534,0,0,1-.18.378,4.536,4.536,0,0,1-1.449,1.152,3.977,3.977,0,0,1-1.845.45A4.928,4.928,0,0,1,541.805-1466.714Zm.027-7.236a3.333,3.333,0,0,0-1.143,2.07h6.138v-.144a2.846,2.846,0,0,0-.54-1.413,2.93,2.93,0,0,0-1.125-.918,3.269,3.269,0,0,0-1.4-.315A3.016,3.016,0,0,0,541.832-1473.95Zm-10.764,7.4a6.438,6.438,0,0,1-1.935-1.35.544.544,0,0,1-.216-.432.562.562,0,0,1,.171-.4.522.522,0,0,1,.387-.18.553.553,0,0,1,.4.18,4.541,4.541,0,0,0,3.51,1.548,3.606,3.606,0,0,0,2.151-.612,1.885,1.885,0,0,0,.855-1.6,1.956,1.956,0,0,0-.423-1.287,3.171,3.171,0,0,0-1.107-.837,14.679,14.679,0,0,0-1.746-.666,10.622,10.622,0,0,1-1.935-.756,3.552,3.552,0,0,1-1.269-1.107,2.986,2.986,0,0,1-.486-1.755,2.892,2.892,0,0,1,.513-1.692,3.441,3.441,0,0,1,1.44-1.161,5.091,5.091,0,0,1,2.133-.423,5.72,5.72,0,0,1,2.061.369,3.687,3.687,0,0,1,1.539,1.053.871.871,0,0,1,.27.522.506.506,0,0,1-.18.369.564.564,0,0,1-.4.171.417.417,0,0,1-.306-.126,3.543,3.543,0,0,0-1.3-.936,4.117,4.117,0,0,0-1.692-.36,3.631,3.631,0,0,0-2.142.585,1.848,1.848,0,0,0-.828,1.593,1.84,1.84,0,0,0,.792,1.6,8.445,8.445,0,0,0,2.268,1.026,13.76,13.76,0,0,1,2.088.774,3.434,3.434,0,0,1,1.323,1.125,3.264,3.264,0,0,1,.513,1.917,2.809,2.809,0,0,1-.531,1.665,3.6,3.6,0,0,1-1.476,1.179,5.119,5.119,0,0,1-2.151.432A5.734,5.734,0,0,1,531.068-1466.552Zm69.246-.567a3.585,3.585,0,0,1-.981-2.709v-5.076a.525.525,0,0,1,.152-.387.528.528,0,0,1,.388-.153.527.527,0,0,1,.387.153.525.525,0,0,1,.152.387v5.076a2.649,2.649,0,0,0,.685,1.971,2.624,2.624,0,0,0,1.926.675,2.684,2.684,0,0,0,1.953-.675,2.631,2.631,0,0,0,.693-1.971v-5.076a.522.522,0,0,1,.153-.387.524.524,0,0,1,.387-.153.527.527,0,0,1,.387.153.526.526,0,0,1,.153.387v5.076a3.569,3.569,0,0,1-.99,2.709,3.8,3.8,0,0,1-2.736.945A3.741,3.741,0,0,1,600.314-1467.119Zm217.89.666a.522.522,0,0,1-.153-.387v-5.238a2.937,2.937,0,0,0-.586-1.9,2.179,2.179,0,0,0-1.808-.729,3.138,3.138,0,0,0-1.468.36,3.14,3.14,0,0,0-1.125.963,2.2,2.2,0,0,0-.431,1.3v5.238a.526.526,0,0,1-.153.387.527.527,0,0,1-.387.153.524.524,0,0,1-.387-.153.522.522,0,0,1-.153-.387v-8.064a.522.522,0,0,1,.153-.387.524.524,0,0,1,.387-.153.527.527,0,0,1,.387.153.526.526,0,0,1,.153.387v.99a3.819,3.819,0,0,1,1.394-1.287,3.751,3.751,0,0,1,1.864-.513,2.955,2.955,0,0,1,2.457.981,4.049,4.049,0,0,1,.783,2.6v5.292a.509.509,0,0,1-.162.387.537.537,0,0,1-.379.153A.524.524,0,0,1,818.2-1466.453Zm-36.945.063a1.371,1.371,0,0,1-.729-.54,2.352,2.352,0,0,1-.352-1.44v-6.084h-1.313a.516.516,0,0,1-.369-.144.472.472,0,0,1-.153-.36.472.472,0,0,1,.153-.36.516.516,0,0,1,.369-.144h1.313v-2a.523.523,0,0,1,.154-.387.524.524,0,0,1,.387-.153.524.524,0,0,1,.386.153.523.523,0,0,1,.154.387v2h1.8a.473.473,0,0,1,.352.162.513.513,0,0,1,.153.36.458.458,0,0,1-.145.351.5.5,0,0,1-.36.135h-1.8v6.03a1.287,1.287,0,0,0,.252.927.918.918,0,0,0,.666.243,1.062,1.062,0,0,0,.27-.045,1.029,1.029,0,0,1,.252-.045.358.358,0,0,1,.279.135.469.469,0,0,1,.117.315.494.494,0,0,1-.288.423,1.315,1.315,0,0,1-.684.171A3.725,3.725,0,0,1,781.259-1466.39Zm-5.913-.063a.522.522,0,0,1-.153-.387v-5.238a2.942,2.942,0,0,0-.585-1.9,2.182,2.182,0,0,0-1.809-.729,3.132,3.132,0,0,0-1.467.36,3.133,3.133,0,0,0-1.125.963,2.2,2.2,0,0,0-.432,1.3v5.238a.525.525,0,0,1-.153.387.527.527,0,0,1-.387.153.524.524,0,0,1-.387-.153.522.522,0,0,1-.153-.387v-8.064a.522.522,0,0,1,.153-.387.524.524,0,0,1,.387-.153.527.527,0,0,1,.387.153.526.526,0,0,1,.153.387v.99a3.816,3.816,0,0,1,1.4-1.287,3.744,3.744,0,0,1,1.862-.513,2.955,2.955,0,0,1,2.458.981,4.054,4.054,0,0,1,.783,2.6v5.292a.507.507,0,0,1-.163.387.531.531,0,0,1-.377.153A.524.524,0,0,1,775.346-1466.453Zm-21.114,0a.522.522,0,0,1-.153-.387v-8.28a.522.522,0,0,1,.153-.387.524.524,0,0,1,.387-.153.527.527,0,0,1,.387.153.526.526,0,0,1,.153.387v8.28a.526.526,0,0,1-.153.387.527.527,0,0,1-.387.153A.524.524,0,0,1,754.232-1466.453Zm-4.356,0a.522.522,0,0,1-.153-.387v-12.24a.522.522,0,0,1,.153-.387.524.524,0,0,1,.387-.153.527.527,0,0,1,.387.153.525.525,0,0,1,.153.387v12.24a.525.525,0,0,1-.153.387.527.527,0,0,1-.387.153A.524.524,0,0,1,749.876-1466.453Zm-30.789.063a1.371,1.371,0,0,1-.729-.54,2.351,2.351,0,0,1-.352-1.44v-6.084h-1.313a.518.518,0,0,1-.369-.144.472.472,0,0,1-.153-.36.472.472,0,0,1,.153-.36.517.517,0,0,1,.369-.144h1.313v-2a.523.523,0,0,1,.154-.387.524.524,0,0,1,.387-.153.524.524,0,0,1,.386.153.523.523,0,0,1,.154.387v2h1.8a.473.473,0,0,1,.352.162.513.513,0,0,1,.153.36.461.461,0,0,1-.144.351.507.507,0,0,1-.361.135h-1.8v6.03a1.287,1.287,0,0,0,.252.927.918.918,0,0,0,.666.243,1.062,1.062,0,0,0,.27-.045,1.03,1.03,0,0,1,.252-.045.358.358,0,0,1,.279.135.47.47,0,0,1,.117.315.494.494,0,0,1-.288.423,1.315,1.315,0,0,1-.684.171A3.731,3.731,0,0,1,719.087-1466.39Zm-10.548-.108-3.978-4.212-1.35,1.152v2.718a.526.526,0,0,1-.153.387.527.527,0,0,1-.387.153.524.524,0,0,1-.387-.153.522.522,0,0,1-.153-.387v-12.24a.522.522,0,0,1,.153-.387.524.524,0,0,1,.387-.153.527.527,0,0,1,.387.153.526.526,0,0,1,.153.387v8.208l5.2-4.482a.5.5,0,0,1,.379-.18.487.487,0,0,1,.36.171.529.529,0,0,1,.162.369.588.588,0,0,1-.2.414l-3.708,3.15,3.906,4.176a.6.6,0,0,1,.162.414.477.477,0,0,1-.189.387.578.578,0,0,1-.351.153A.492.492,0,0,1,708.539-1466.5Zm-10.629.045a.523.523,0,0,1-.154-.387v-5.238a2.942,2.942,0,0,0-.584-1.9,2.182,2.182,0,0,0-1.809-.729,3.131,3.131,0,0,0-1.467.36,3.125,3.125,0,0,0-1.125.963,2.2,2.2,0,0,0-.432,1.3v5.238a.525.525,0,0,1-.153.387.527.527,0,0,1-.387.153.524.524,0,0,1-.387-.153.522.522,0,0,1-.153-.387v-8.064a.522.522,0,0,1,.153-.387.524.524,0,0,1,.387-.153.527.527,0,0,1,.387.153.526.526,0,0,1,.153.387v.99a3.808,3.808,0,0,1,1.4-1.287,3.745,3.745,0,0,1,1.863-.513,2.951,2.951,0,0,1,2.456.981,4.044,4.044,0,0,1,.784,2.6v5.292a.512.512,0,0,1-.162.387.535.535,0,0,1-.378.153A.524.524,0,0,1,697.91-1466.453Zm-10.746,0a.522.522,0,0,1-.153-.387v-8.28a.522.522,0,0,1,.153-.387.524.524,0,0,1,.387-.153.527.527,0,0,1,.387.153.526.526,0,0,1,.153.387v8.28a.526.526,0,0,1-.153.387.527.527,0,0,1-.387.153A.524.524,0,0,1,687.164-1466.453Zm-4.356,0a.522.522,0,0,1-.153-.387v-12.24a.522.522,0,0,1,.153-.387.524.524,0,0,1,.387-.153.527.527,0,0,1,.387.153.525.525,0,0,1,.153.387v12.24a.525.525,0,0,1-.153.387.527.527,0,0,1-.387.153A.524.524,0,0,1,682.808-1466.453Zm-19.962,0a.522.522,0,0,1-.153-.387v-12.24a.522.522,0,0,1,.153-.387.524.524,0,0,1,.387-.153.527.527,0,0,1,.387.153.526.526,0,0,1,.153.387v12.24a.526.526,0,0,1-.153.387.527.527,0,0,1-.387.153A.524.524,0,0,1,662.846-1466.453Zm-4.356,0a.522.522,0,0,1-.153-.387v-8.28a.522.522,0,0,1,.153-.387.524.524,0,0,1,.387-.153.527.527,0,0,1,.387.153.526.526,0,0,1,.153.387v8.28a.526.526,0,0,1-.153.387.527.527,0,0,1-.387.153A.524.524,0,0,1,658.49-1466.453Zm-5.76,0a.522.522,0,0,1-.153-.387v-7.47h-1.314a.474.474,0,0,1-.36-.153.5.5,0,0,1-.144-.351.481.481,0,0,1,.144-.369.505.505,0,0,1,.36-.135h1.314v-1.854a2.3,2.3,0,0,1,.657-1.755,2.448,2.448,0,0,1,1.755-.621,2.794,2.794,0,0,1,.936.153c.288.1.432.267.432.495a.491.491,0,0,1-.144.36.447.447,0,0,1-.324.144,1.135,1.135,0,0,1-.4-.09,2.549,2.549,0,0,0-.63-.108,1.094,1.094,0,0,0-.891.378,1.58,1.58,0,0,0-.315,1.044v1.854h2.016a.5.5,0,0,1,.351.144.475.475,0,0,1,.153.36.475.475,0,0,1-.153.36.5.5,0,0,1-.351.144h-2.016v7.47a.525.525,0,0,1-.153.387.527.527,0,0,1-.387.153A.524.524,0,0,1,652.73-1466.453Zm-18.882,0a.522.522,0,0,1-.153-.387v-8.064a.522.522,0,0,1,.153-.387.524.524,0,0,1,.387-.153.527.527,0,0,1,.387.153.526.526,0,0,1,.153.387v1.584a4.127,4.127,0,0,1,1.251-1.7,3.126,3.126,0,0,1,1.971-.693,1.428,1.428,0,0,1,.648.144.462.462,0,0,1,.288.432.569.569,0,0,1-.144.405.457.457,0,0,1-.342.153,1.357,1.357,0,0,1-.351-.09,1.516,1.516,0,0,0-.495-.09,2.14,2.14,0,0,0-1.323.513,3.987,3.987,0,0,0-1.08,1.323,3.5,3.5,0,0,0-.423,1.638v4.446a.525.525,0,0,1-.153.387.527.527,0,0,1-.387.153A.524.524,0,0,1,633.848-1466.453Zm-23.76,0a.522.522,0,0,1-.153-.387v-8.064a.522.522,0,0,1,.153-.387.524.524,0,0,1,.387-.153.527.527,0,0,1,.387.153.526.526,0,0,1,.153.387v1.584a4.127,4.127,0,0,1,1.251-1.7,3.126,3.126,0,0,1,1.971-.693,1.429,1.429,0,0,1,.648.144.462.462,0,0,1,.288.432.569.569,0,0,1-.144.405.457.457,0,0,1-.342.153,1.356,1.356,0,0,1-.351-.09,1.516,1.516,0,0,0-.495-.09,2.14,2.14,0,0,0-1.323.513,3.988,3.988,0,0,0-1.08,1.323,3.5,3.5,0,0,0-.423,1.638v4.446a.526.526,0,0,1-.153.387.527.527,0,0,1-.387.153A.524.524,0,0,1,610.088-1466.453Zm-52.9,0a.522.522,0,0,1-.153-.387v-5.238a2.942,2.942,0,0,0-.585-1.9,2.182,2.182,0,0,0-1.809-.729,3.131,3.131,0,0,0-1.467.36,3.132,3.132,0,0,0-1.125.963,2.2,2.2,0,0,0-.432,1.3v5.238a.526.526,0,0,1-.153.387.527.527,0,0,1-.387.153.524.524,0,0,1-.387-.153.522.522,0,0,1-.153-.387v-8.064a.522.522,0,0,1,.153-.387.524.524,0,0,1,.387-.153.527.527,0,0,1,.387.153.526.526,0,0,1,.153.387v.99a3.815,3.815,0,0,1,1.4-1.287,3.745,3.745,0,0,1,1.863-.513,2.954,2.954,0,0,1,2.457.981,4.048,4.048,0,0,1,.783,2.6v5.292a.509.509,0,0,1-.162.387.535.535,0,0,1-.378.153A.524.524,0,0,1,557.186-1466.453Zm196.875-10.584a.618.618,0,0,1-.2-.495v-.18a.6.6,0,0,1,.207-.495.86.86,0,0,1,.566-.171q.721,0,.721.666v.18a.634.634,0,0,1-.189.495.791.791,0,0,1-.549.171A.824.824,0,0,1,754.061-1477.037Zm-67.068,0a.618.618,0,0,1-.2-.495v-.18a.6.6,0,0,1,.207-.495.861.861,0,0,1,.567-.171q.72,0,.72.666v.18a.634.634,0,0,1-.189.495.791.791,0,0,1-.549.171A.824.824,0,0,1,686.993-1477.037Zm-28.674,0a.618.618,0,0,1-.2-.495v-.18a.6.6,0,0,1,.207-.495.861.861,0,0,1,.567-.171q.72,0,.72.666v.18a.634.634,0,0,1-.189.495.791.791,0,0,1-.549.171A.824.824,0,0,1,658.319-1477.037Zm18.932-29.319c-2.479-3.044-3.045-6.938-5.1-10.194-3.115-4.955-5.8,5.664-6.513,7.575-1.062,2.9-3.327,4.531-6.017,2.053-3.045-2.9-1.274-8.566,0-11.894.284-.708,1.345-.425,1.132.283a25.223,25.223,0,0,0-1.132,7.222c.071,1.2,2.194,6.159,3.823,3.115a10.034,10.034,0,0,0,.991-2.549c.85-3.186,1.557-6.089,4.318-8.212,4.673-3.61,7.009,6.8,8.354,9.2,1.558,2.76,5.1,5.451,7.929,2.478,2.336-2.478,3.115-6.16,3.682-9.416,1.061-6.017.92-12.106,1.061-18.194a36.359,36.359,0,0,0-2.831,2.9c-.566.708-1.628-.071-1.416-.85,1.2-4.177,3.752-7.788,5.451-11.752.283-.707,1.345-.425,1.557.212,1.2,3.964,3.752,7.222,5.31,10.974.283.566-.141,1.557-.921,1.345a27.378,27.378,0,0,1-5.521-2.9c.212,7.292.212,14.938-1.7,22.018-.779,2.831-2.053,6.8-5.026,8.141a6.815,6.815,0,0,1-2.675.54A6.149,6.149,0,0,1,677.252-1506.356Zm13.592-30.654c1.629.212,3.045,1.274,4.531,2.2-1.274-2.407-2.62-4.6-3.682-7.08-.991,1.983-2.123,3.965-3.044,5.947a2.855,2.855,0,0,1,1.416-.637.734.734,0,0,1,.642-.439A.689.689,0,0,1,690.844-1537.01Z"
          transform="translate(-528.917 1545)" fill="rgba(0,0,0,0.7)"/>
</svg>
