<svg xmlns="http://www.w3.org/2000/svg" width="29.41" height="38" viewBox="0 0 29.41 38">
    <defs>
        <filter id="Path_137" x="0" y="0" width="29.41" height="38" filterUnits="userSpaceOnUse">
            <feOffset dy="3" input="SourceAlpha"/>
            <feGaussianBlur stdDeviation="3" result="blur"/>
            <feFlood flood-opacity="0.161"/>
            <feComposite operator="in" in2="blur"/>
            <feComposite in="SourceGraphic"/>
        </filter>
    </defs>
    <g transform="matrix(1, 0, 0, 1, 0, 0)" filter="url(#Path_137)">
        <path id="Path_137-2" data-name="Path 137"
              d="M14.964,14.225a1.287,1.287,0,0,1-.09.488,1.129,1.129,0,0,1-.307.416l-8.94,8.759a1.185,1.185,0,0,1-.855.337,1.266,1.266,0,0,1-.614-.151,1.113,1.113,0,0,1-.44-.434,1.2,1.2,0,0,1,.211-1.476l8.133-7.94L3.928,6.285A1.212,1.212,0,0,1,3.717,4.8a1.125,1.125,0,0,1,.44-.428,1.266,1.266,0,0,1,.614-.151,1.185,1.185,0,0,1,.855.337l8.94,8.759a1.129,1.129,0,0,1,.307.416A1.287,1.287,0,0,1,14.964,14.225Z"
              transform="translate(5.45 1.78)" fill="#fff"/>
    </g>
</svg>
